<?xml version="1.0" encoding="utf-8"?>
<!-- Generator: Adobe Illustrator 25.0.1, SVG Export Plug-In . SVG Version: 6.00 Build 0)  -->
<svg version="1.1" id="Layer_1" xmlns="http://www.w3.org/2000/svg" xmlns:xlink="http://www.w3.org/1999/xlink" x="0px" y="0px"
	 viewBox="0 0 287.1 212.9" style="enable-background:new 0 0 287.1 212.9;" xml:space="preserve">
<style type="text/css">
	.st0{fill:none;stroke:#000000;stroke-width:4;stroke-miterlimit:10;}
	.st1{fill:none;stroke:#000000;stroke-miterlimit:10;}
	.st2{font-family:'MyriadPro-Bold';}
	.st3{font-size:12.47px;}
	.st4{fill:#CCCCCC;}
	.st5{fill:#FFFFFF;}
	.st6{font-family:'MyriadPro-Regular';}
	.st7{font-size:10.1484px;}
	.st8{fill:#FFFFFF;stroke:#000000;stroke-width:2;stroke-miterlimit:10;}
	.st9{font-size:12.4313px;}
	.st10{font-size:15.7011px;}
</style>
<g>
	<g>
		<g>
			<rect x="32.1" y="60.5" class="st0" width="189.8" height="28.3"/>
			<line class="st1" x1="50.8" y1="61.2" x2="50.8" y2="87.7"/>
			<line class="st1" x1="44.7" y1="60.4" x2="44.7" y2="86.9"/>
			<line class="st1" x1="47.4" y1="60.3" x2="47.4" y2="86.8"/>
			<line class="st1" x1="41.5" y1="60.8" x2="41.5" y2="87.4"/>
			<line class="st1" x1="35.4" y1="60.1" x2="35.4" y2="86.6"/>
			<line class="st1" x1="38.1" y1="60" x2="38.1" y2="86.5"/>
			<line class="st1" x1="68.8" y1="61.9" x2="68.8" y2="88.4"/>
			<line class="st1" x1="62.7" y1="61.2" x2="62.7" y2="87.7"/>
			<line class="st1" x1="65.4" y1="61" x2="65.4" y2="87.6"/>
			<line class="st1" x1="59.5" y1="61.6" x2="59.5" y2="88.1"/>
			<line class="st1" x1="53.4" y1="60.8" x2="53.4" y2="87.4"/>
			<line class="st1" x1="56.1" y1="60.7" x2="56.1" y2="87.2"/>
			<line class="st1" x1="86.9" y1="61" x2="86.9" y2="87.6"/>
			<line class="st1" x1="80.8" y1="60.3" x2="80.8" y2="86.8"/>
			<line class="st1" x1="83.6" y1="60.2" x2="83.5" y2="86.7"/>
			<line class="st1" x1="77.7" y1="60.7" x2="77.6" y2="87.3"/>
			<line class="st1" x1="71.6" y1="60" x2="71.5" y2="86.5"/>
			<line class="st1" x1="74.3" y1="59.8" x2="74.2" y2="86.4"/>
			<line class="st1" x1="105.7" y1="60.9" x2="105.7" y2="87.4"/>
			<line class="st1" x1="99.6" y1="60.1" x2="99.6" y2="86.7"/>
			<line class="st1" x1="102.3" y1="60" x2="102.3" y2="86.5"/>
			<line class="st1" x1="96.4" y1="60.6" x2="96.4" y2="87.1"/>
			<line class="st1" x1="90.3" y1="59.8" x2="90.3" y2="86.3"/>
			<line class="st1" x1="93" y1="59.7" x2="93" y2="86.2"/>
			<line class="st1" x1="123.7" y1="61.6" x2="123.7" y2="88.2"/>
			<line class="st1" x1="117.6" y1="60.9" x2="117.6" y2="87.4"/>
			<line class="st1" x1="120.3" y1="60.7" x2="120.3" y2="87.3"/>
			<line class="st1" x1="114.4" y1="61.3" x2="114.4" y2="87.9"/>
			<line class="st1" x1="108.3" y1="60.5" x2="108.3" y2="87.1"/>
			<line class="st1" x1="111" y1="60.4" x2="111" y2="87"/>
			<line class="st1" x1="141.9" y1="60.8" x2="141.8" y2="87.3"/>
			<line class="st1" x1="135.8" y1="60" x2="135.7" y2="86.6"/>
			<line class="st1" x1="138.5" y1="59.9" x2="138.4" y2="86.4"/>
			<line class="st1" x1="132.6" y1="60.4" x2="132.6" y2="87"/>
			<line class="st1" x1="126.5" y1="59.7" x2="126.4" y2="86.2"/>
			<line class="st1" x1="129.2" y1="59.5" x2="129.1" y2="86.1"/>
			<line class="st1" x1="160.4" y1="61.1" x2="160.4" y2="87.7"/>
			<line class="st1" x1="154.3" y1="60.3" x2="154.3" y2="86.9"/>
			<line class="st1" x1="157" y1="60.2" x2="157" y2="86.8"/>
			<line class="st1" x1="151.1" y1="60.8" x2="151.1" y2="87.3"/>
			<line class="st1" x1="145" y1="60" x2="145" y2="86.6"/>
			<line class="st1" x1="147.7" y1="59.9" x2="147.7" y2="86.4"/>
			<line class="st1" x1="178.4" y1="61.8" x2="178.4" y2="88.4"/>
			<line class="st1" x1="172.3" y1="61.1" x2="172.3" y2="87.6"/>
			<line class="st1" x1="175" y1="61" x2="175" y2="87.5"/>
			<line class="st1" x1="169.1" y1="61.5" x2="169.1" y2="88.1"/>
			<line class="st1" x1="163.1" y1="60.8" x2="163" y2="87.3"/>
			<line class="st1" x1="165.8" y1="60.6" x2="165.7" y2="87.2"/>
			<line class="st1" x1="196.6" y1="61" x2="196.5" y2="87.5"/>
			<line class="st1" x1="190.5" y1="60.2" x2="190.4" y2="86.8"/>
			<line class="st1" x1="193.2" y1="60.1" x2="193.1" y2="86.6"/>
			<line class="st1" x1="187.3" y1="60.7" x2="187.2" y2="87.2"/>
			<line class="st1" x1="181.2" y1="59.9" x2="181.1" y2="86.4"/>
			<line class="st1" x1="183.9" y1="59.8" x2="183.9" y2="86.3"/>
			<line class="st1" x1="215.3" y1="60.8" x2="215.3" y2="87.4"/>
			<line class="st1" x1="209.2" y1="60.1" x2="209.2" y2="86.6"/>
			<line class="st1" x1="211.9" y1="59.9" x2="211.9" y2="86.5"/>
			<line class="st1" x1="206" y1="60.5" x2="206" y2="87.1"/>
			<line class="st1" x1="199.9" y1="59.8" x2="199.9" y2="86.3"/>
			<line class="st1" x1="202.6" y1="59.6" x2="202.6" y2="86.2"/>
			<line class="st1" x1="217.9" y1="60.5" x2="217.9" y2="87"/>
			<line class="st1" x1="220.7" y1="60.4" x2="220.6" y2="86.9"/>
			<text transform="matrix(1 0 0 1 92.3 105.62)" class="st2 st3">9056893214</text>
		</g>
		<g>
			<path class="st4" d="M6.1,148.8c-3.1,0-5.6-2.5-5.6-5.6L0.6,6.1c0-3.1,2.5-5.6,5.6-5.6l240.2,0.2c3.1,0,5.6,2.5,5.6,5.5
				c0,0,0,0,0,0l-0.1,137.2c0,3.1-2.5,5.5-5.6,5.6L6.1,148.8z"/>
			<path class="st5" d="M6.2,1l240.2,0.2c2.8,0,5.1,2.3,5.1,5.1l-0.1,137.2c0,2.8-2.3,5-5.1,5L6.1,148.3c-2.8,0-5.1-2.3-5.1-5.1
				L1.1,6.1C1.1,3.3,3.4,1,6.2,1L6.2,1 M6.2,0C2.9,0,0.1,2.7,0.1,6c0,0,0,0,0,0L0,143.2c0,3.3,2.7,6.1,6,6.1c0,0,0,0,0,0l240.2,0.2
				l0,0c3.3,0,6-2.7,6.1-6l0.1-137.2c0-3.3-2.7-6.1-6.1-6.1L6.2,0z"/>
		</g>
	</g>
	<text transform="matrix(0.973 -0.2307 0.2307 0.973 79.7394 194.4891)" class="st6 st7">P</text>
	<text transform="matrix(0.973 -0.2307 0.2307 0.973 84.9385 193.2563)" class="st6 st7">lease handle this in</text>
	<text transform="matrix(0.973 -0.2307 0.2307 0.973 163.4216 174.6469)" class="st6 st7">f</text>
	<text transform="matrix(0.973 -0.2307 0.2307 0.973 166.1763 173.9937)" class="st6 st7">o</text>
	<text transform="matrix(0.973 -0.2307 0.2307 0.973 171.5982 172.7081)" class="st6 st7">r</text>
	<text transform="matrix(0.973 -0.2307 0.2307 0.973 174.8674 171.9329)" class="st6 st7">m</text>
	<text transform="matrix(0.973 -0.2307 0.2307 0.973 183.1025 169.9803)" class="st6 st7">a</text>
	<text transform="matrix(0.973 -0.2307 0.2307 0.973 187.817 168.8624)" class="st6 st7">tion ca</text>
	<text transform="matrix(0.973 -0.2307 0.2307 0.973 215.5685 162.2822)" class="st6 st7">r</text>
	<text transform="matrix(0.973 -0.2307 0.2307 0.973 218.7018 161.5392)" class="st6 st7">efull</text>
	<text transform="matrix(0.973 -0.2307 0.2307 0.973 236.6272 157.2889)" class="st6 st7">y</text>
	<text transform="matrix(0.973 -0.2307 0.2307 0.973 240.8956 156.2768)" class="st6 st7">.</text>
	<g>
		<path class="st8" d="M13.6,65.9l234-54.4c3.3-0.8,6.5,1.3,7.3,4.5l31.1,133.6c0.8,3.3-1.3,6.5-4.5,7.3l-234,54.4
			c-3.3,0.8-6.5-1.3-7.3-4.5L9.1,73.1C8.3,69.9,10.3,66.6,13.6,65.9z"/>
		<g>
			
				<rect x="53.3" y="96.9" transform="matrix(0.974 -0.2265 0.2265 0.974 -21.3017 36.4483)" class="st0" width="189.8" height="28.3"/>
			<line class="st1" x1="70.9" y1="115.3" x2="76.9" y2="141.1"/>
			<line class="st1" x1="64.8" y1="115.9" x2="70.8" y2="141.8"/>
			<line class="st1" x1="67.4" y1="115.2" x2="73.4" y2="141"/>
			<line class="st1" x1="61.8" y1="117.1" x2="67.8" y2="142.9"/>
			<line class="st1" x1="55.7" y1="117.7" x2="61.7" y2="143.6"/>
			<line class="st1" x1="58.3" y1="117" x2="64.3" y2="142.8"/>
			<line class="st1" x1="88.7" y1="111.9" x2="94.7" y2="137.8"/>
			<line class="st1" x1="82.5" y1="112.6" x2="88.5" y2="138.4"/>
			<line class="st1" x1="85.1" y1="111.8" x2="91.2" y2="137.7"/>
			<line class="st1" x1="79.5" y1="113.7" x2="85.6" y2="139.6"/>
			<line class="st1" x1="73.4" y1="114.3" x2="79.4" y2="140.2"/>
			<line class="st1" x1="76" y1="113.6" x2="82" y2="139.5"/>
			<line class="st1" x1="106.1" y1="106.9" x2="112.1" y2="132.8"/>
			<line class="st1" x1="100" y1="107.6" x2="106" y2="133.4"/>
			<line class="st1" x1="102.6" y1="106.8" x2="108.6" y2="132.7"/>
			<line class="st1" x1="97" y1="108.7" x2="103" y2="134.6"/>
			<line class="st1" x1="90.9" y1="109.4" x2="96.9" y2="135.2"/>
			<line class="st1" x1="93.5" y1="108.6" x2="99.5" y2="134.5"/>
			<line class="st1" x1="124.3" y1="102.5" x2="130.3" y2="128.4"/>
			<line class="st1" x1="118.2" y1="103.2" x2="124.2" y2="129"/>
			<line class="st1" x1="120.8" y1="102.4" x2="126.8" y2="128.3"/>
			<line class="st1" x1="115.2" y1="104.3" x2="121.2" y2="130.2"/>
			<line class="st1" x1="109.1" y1="105" x2="115.1" y2="130.8"/>
			<line class="st1" x1="111.7" y1="104.2" x2="117.7" y2="130.1"/>
			<line class="st1" x1="142.1" y1="99.1" x2="148.1" y2="125"/>
			<line class="st1" x1="135.9" y1="99.8" x2="141.9" y2="125.7"/>
			<line class="st1" x1="138.5" y1="99.1" x2="144.6" y2="124.9"/>
			<line class="st1" x1="132.9" y1="100.9" x2="138.9" y2="126.8"/>
			<line class="st1" x1="126.8" y1="101.6" x2="132.8" y2="127.4"/>
			<line class="st1" x1="129.4" y1="100.8" x2="135.4" y2="126.7"/>
			<line class="st1" x1="159.5" y1="94.2" x2="165.5" y2="120"/>
			<line class="st1" x1="153.4" y1="94.8" x2="159.4" y2="120.7"/>
			<line class="st1" x1="156" y1="94.1" x2="162" y2="119.9"/>
			<line class="st1" x1="150.4" y1="96" x2="156.4" y2="121.8"/>
			<line class="st1" x1="144.3" y1="96.6" x2="150.3" y2="122.5"/>
			<line class="st1" x1="146.9" y1="95.9" x2="152.9" y2="121.7"/>
			<line class="st1" x1="177.6" y1="90.3" x2="183.7" y2="116.1"/>
			<line class="st1" x1="171.5" y1="90.9" x2="177.6" y2="116.8"/>
			<line class="st1" x1="174.1" y1="90.2" x2="180.2" y2="116.1"/>
			<line class="st1" x1="168.5" y1="92.1" x2="174.6" y2="117.9"/>
			<line class="st1" x1="162.4" y1="92.7" x2="168.4" y2="118.6"/>
			<line class="st1" x1="165" y1="92" x2="171" y2="117.8"/>
			<line class="st1" x1="195.4" y1="86.9" x2="201.4" y2="112.8"/>
			<line class="st1" x1="189.3" y1="87.6" x2="195.3" y2="113.4"/>
			<line class="st1" x1="191.9" y1="86.8" x2="197.9" y2="112.7"/>
			<line class="st1" x1="186.3" y1="88.7" x2="192.3" y2="114.6"/>
			<line class="st1" x1="180.1" y1="89.4" x2="186.2" y2="115.2"/>
			<line class="st1" x1="182.8" y1="88.6" x2="188.8" y2="114.5"/>
			<line class="st1" x1="212.8" y1="81.9" x2="218.9" y2="107.8"/>
			<line class="st1" x1="206.7" y1="82.6" x2="212.7" y2="108.4"/>
			<line class="st1" x1="209.3" y1="81.8" x2="215.3" y2="107.7"/>
			<line class="st1" x1="203.7" y1="83.7" x2="209.7" y2="109.6"/>
			<line class="st1" x1="197.6" y1="84.4" x2="203.6" y2="110.2"/>
			<line class="st1" x1="200.2" y1="83.7" x2="206.2" y2="109.5"/>
			<line class="st1" x1="231.1" y1="77.5" x2="237.1" y2="103.4"/>
			<line class="st1" x1="224.9" y1="78.2" x2="231" y2="104"/>
			<line class="st1" x1="227.6" y1="77.4" x2="233.6" y2="103.3"/>
			<line class="st1" x1="221.9" y1="79.3" x2="228" y2="105.2"/>
			<line class="st1" x1="215.8" y1="80" x2="221.9" y2="105.8"/>
			<line class="st1" x1="218.4" y1="79.2" x2="224.4" y2="105.1"/>
			<line class="st1" x1="233.6" y1="76.6" x2="239.6" y2="102.5"/>
			<line class="st1" x1="236.2" y1="75.9" x2="242.2" y2="101.7"/>
			<text transform="matrix(0.973 -0.2307 0.2307 0.973 121.4594 149.119)" class="st2 st9">0000000000</text>
		</g>
	</g>
	<text transform="matrix(0.973 -0.2307 0.2307 0.973 43.3194 95.4091)" class="st6 st10">B</text>
	<text transform="matrix(0.973 -0.2307 0.2307 0.973 51.6613 93.4311)" class="st6 st10">ea</text>
	<text transform="matrix(0.973 -0.2307 0.2307 0.973 66.6676 89.8729)" class="st6 st10">r</text>
	<text transform="matrix(0.973 -0.2307 0.2307 0.973 72.0506 88.5966)" class="st6 st10">y B</text>
	<text transform="matrix(0.973 -0.2307 0.2307 0.973 90.7527 84.162)" class="st6 st10">r</text>
	<text transform="matrix(0.973 -0.2307 0.2307 0.973 95.8159 82.9615)" class="st6 st10">ig</text>
	<text transform="matrix(0.973 -0.2307 0.2307 0.973 107.9212 80.0912)" class="st6 st10">h</text>
	<text transform="matrix(0.973 -0.2307 0.2307 0.973 116.3411 78.0947)" class="st6 st10">t Di</text>
	<text transform="matrix(0.973 -0.2307 0.2307 0.973 138.3794 72.8691)" class="st6 st10">g</text>
	<text transform="matrix(0.973 -0.2307 0.2307 0.973 146.8183 70.8681)" class="st6 st10">ital</text>
	<text transform="matrix(0.973 -0.2307 0.2307 0.973 166.4222 66.2198)" class="st6 st10"> </text>
	<text transform="matrix(0.973 -0.2307 0.2307 0.973 169.1089 65.5827)" class="st6 st10">W</text>
	<text transform="matrix(0.973 -0.2307 0.2307 0.973 181.5249 62.6387)" class="st6 st10">ash </text>
	<text transform="matrix(0.973 -0.2307 0.2307 0.973 206.6482 56.6817)" class="st6 st10">C</text>
	<text transform="matrix(0.973 -0.2307 0.2307 0.973 215.3973 54.6071)" class="st6 st10">a</text>
	<text transform="matrix(0.973 -0.2307 0.2307 0.973 222.7596 52.8615)" class="st6 st10">r</text>
	<text transform="matrix(0.973 -0.2307 0.2307 0.973 227.5999 51.7137)" class="st6 st10">d</text>
</g>
</svg>
