<svg xmlns="http://www.w3.org/2000/svg" viewBox="0 0 103.28 103.28"><defs><style>.cls-1{fill:#fff;stroke:#ccc;stroke-miterlimit:10;}.cls-2{fill:#2e99cf;}.cls-3{fill:#004b8d;}.cls-3,.cls-4{fill-rule:evenodd;}.cls-4{fill:#a6ce39;}</style></defs><title>icon-washRinse</title><g id="Layer_2" data-name="Layer 2"><g id="Layer_1-2" data-name="Layer 1"><circle class="cls-1" cx="51.64" cy="51.64" r="51.14"/><path class="cls-2" d="M79,57.37c0-1.27-2.06-2.61-4-2.61a2.88,2.88,0,0,0-2.94,2l-3.8-6.14c-1.21-2-4.34-2.84-15.71-2.84s-14.49.88-15.7,2.84L33,56.75a2.88,2.88,0,0,0-2.94-2c-1.94,0-4,1.34-4,2.61s2.06,2,4,2h.48c-1.12,1-2.24,1.91-2.24,1.91a5.14,5.14,0,0,0-1.44,3.29v8.36a2.51,2.51,0,0,0,1.23,2v4.42a1.38,1.38,0,0,0,1.39,1.38h6.11A1.38,1.38,0,0,0,37,79.28V77.49a116.7,116.7,0,0,0,15.52.88,116.76,116.76,0,0,0,15.53-.88v1.79a1.38,1.38,0,0,0,1.38,1.38h6.12A1.38,1.38,0,0,0,77,79.28V74.86a2.5,2.5,0,0,0,1.22-2V64.53a5.13,5.13,0,0,0-1.43-3.29s-1.12-.92-2.24-1.91H75C76.92,59.34,79,58.64,79,57.37Zm-40.9-6c.79-1.29,3.56-2.15,14.45-2.15S66.2,50.09,67,51.38l3.62,6.49s-4.67,1-18.08,1-18.08-1-18.08-1ZM33.24,68.05a2.92,2.92,0,0,1,0-5.84c1.56,0,6.65,3,6.65,4.6S34.8,68.05,33.24,68.05ZM61,74.94H44c-1.77,0-3.21-2.18-3.21-4.88H64.25C64.25,72.76,62.82,74.94,61,74.94Zm13.61-9.81a2.87,2.87,0,0,1-2.82,2.92c-1.56,0-6.65.37-6.65-1.24s5.09-4.6,6.65-4.6A2.87,2.87,0,0,1,74.65,65.13Z"/><path class="cls-3" d="M45.75,23c1.17-3.26,3.2-5.5,6.79-5.5s5.61,2.26,6.78,5.5h9.31c.44,0,.88,0,1.32,0a2.14,2.14,0,0,1,2.16,2,2.19,2.19,0,0,1-1.89,2.37,5.47,5.47,0,0,1-.7,0h-34c-1.5,0-2.47-.75-2.58-2A2.14,2.14,0,0,1,35.21,23c3.2,0,6.4,0,9.6,0Z"/><path class="cls-4" d="M53.41,44.73a1.31,1.31,0,0,1-1.3,1.32H51.9a1.32,1.32,0,0,1-.92-.38,1.29,1.29,0,0,1-.39-.92l-.07-14.84A1.34,1.34,0,0,1,50.9,29a1.37,1.37,0,0,1,.92-.39H52a1.31,1.31,0,0,1,1.31,1.3Z"/><path class="cls-4" d="M87.23,64.39a1.31,1.31,0,0,1,.1,1,1.36,1.36,0,0,1-.63.78l-.19.1a1.3,1.3,0,0,1-1.76-.54L66.11,31.07a1.32,1.32,0,0,1,.53-1.77l.18-.09a1.29,1.29,0,0,1,1-.1,1.27,1.27,0,0,1,.77.63Z"/><path class="cls-4" d="M17.84,64.39a1.31,1.31,0,0,0-.1,1,1.36,1.36,0,0,0,.63.78l.19.1a1.3,1.3,0,0,0,1.76-.54L39,31.07a1.32,1.32,0,0,0-.53-1.77l-.4-.21a1.09,1.09,0,0,0-.81-.08,1.1,1.1,0,0,0-.63.51Z"/><path class="cls-4" d="M37.91,42.53a1.3,1.3,0,0,0,.47,1.79l.18.1A1.29,1.29,0,0,0,40.34,44l7.48-12.81a1.28,1.28,0,0,0,.14-1,1.33,1.33,0,0,0-.61-.8l-.18-.1a1.29,1.29,0,0,0-1.78.47Z"/><path class="cls-4" d="M66.55,42.53a1.3,1.3,0,0,1-.47,1.79l-.17.1a1.28,1.28,0,0,1-1,.14,1.3,1.3,0,0,1-.8-.61L56.64,31.14a1.32,1.32,0,0,1-.14-1,1.3,1.3,0,0,1,.61-.8l.18-.1a1.29,1.29,0,0,1,1.78.47Z"/></g></g></svg>