<svg xmlns="http://www.w3.org/2000/svg" viewBox="0 0 103.28 103.28"><defs><style>.cls-1{fill:#fff;stroke:#ccc;stroke-miterlimit:10;}.cls-2{fill:#a6ce39;}.cls-3{fill:#004b8d;}</style></defs><title>icon-hand-heart</title><g id="Layer_2" data-name="Layer 2"><g id="Layer_1-2" data-name="Layer 1"><circle class="cls-1" cx="51.64" cy="51.64" r="51.14"/><polygon class="cls-2" points="50.34 27.32 48.57 24.74 43.85 23.69 40.15 24.74 37.55 27.32 36.37 33.39 39.17 39.88 43.61 44.48 51.58 49.66 57.99 45.55 64.4 38.56 66.87 32.32 65.32 27.47 62.1 24.35 58.24 23.2 54.27 24.18 50.34 27.32"/><path class="cls-3" d="M70.74,81H55.94a1.44,1.44,0,0,1-1.44-1.49c.08-2.32,0-4.6-.11-6.81C54,64.11,53.71,56,64,50.37c3.5-1.91,5-4.29,6.53-6.81a34.4,34.4,0,0,1,2-3,5,5,0,0,1,3.84-1.85c0-.39,0-.76,0-1.11,0-2.7,0-4.48.08-7.08a5.92,5.92,0,0,1,5.12-5.44c1.51-.07,3.28.81,3.69,3.54.1.61.23,1.37.38,2.25,1,5.75,2.61,15.37,1.66,20.34-1.24,6.68-5.2,10.9-9,15a52.84,52.84,0,0,0-6.09,7.36v6A1.45,1.45,0,0,1,70.74,81ZM57.42,78.12H69.29v-5a1.5,1.5,0,0,1,.22-.77,53.77,53.77,0,0,1,6.66-8.15c3.71-3.94,7.21-7.67,8.3-13.53.85-4.46-.8-14.12-1.68-19.32-.15-.88-.28-1.66-.38-2.28-.17-1.12-.56-1.1-.69-1.1a3.15,3.15,0,0,0-2.37,2.69c-.12,2.52-.1,4.26-.08,6.91,0,.53,0,1.09,0,1.7a5.69,5.69,0,0,1,3,3c.45,1.07.87,3.29-1.26,6.05l-6,7.85-4.7,6.1A1.45,1.45,0,1,1,68,60.47l4.71-6.11,6-7.84c.66-.85,1.34-2.09.89-3.19a3.24,3.24,0,0,0-2.57-1.71,2.44,2.44,0,0,0-2.26.7c-.67.87-1.24,1.79-1.85,2.76-1.61,2.61-3.43,5.55-7.6,7.83-8.72,4.75-8.45,11.34-8.11,19.69C57.36,74.39,57.43,76.22,57.42,78.12Zm-23.88,0H45.42c0-1.9.06-3.73.13-5.52.34-8.35.61-14.94-8.1-19.69-4.17-2.29-6-5.25-7.62-7.87A29.86,29.86,0,0,0,28,42.32a2.5,2.5,0,0,0-2.47-.66,1.38,1.38,0,0,1-.4.1,3.47,3.47,0,0,0-1.2.6c-1.61,1.24-.83,3,.1,4.16,2.31,3,4.6,5.94,6.53,8.45l4.24,5.49a1.45,1.45,0,1,1-2.28,1.78c-.9-1.15-2.38-3.07-4.25-5.51l-6.53-8.44c-2.81-3.66-1.53-6.71.42-8.22a5.63,5.63,0,0,1,1.39-.81c0-.75,0-1.43,0-2.07,0-2.41,0-4.15-.1-6.54A3.12,3.12,0,0,0,21.13,28c-.13,0-.53,0-.71,1.1-.1.71-.26,1.61-.43,2.66-.86,5.1-2.45,14.59-1.62,18.94,1.09,5.86,4.59,9.59,8.29,13.53a53.18,53.18,0,0,1,6.66,8.15,1.41,1.41,0,0,1,.22.77Zm14.39,3a1.45,1.45,0,0,1-1,.44H32.1a1.45,1.45,0,0,1-1.45-1.45v-6a51.64,51.64,0,0,0-6.1-7.36c-3.82-4.08-7.78-8.29-9-15-.92-4.85.67-14.31,1.61-19.95.18-1,.33-1.93.43-2.63.44-2.74,2.21-3.62,3.72-3.54,2.54.13,5,2.73,5.1,5.44.12,2.46.11,4.24.09,6.69,0,.48,0,1,0,1.51a4.94,4.94,0,0,1,3.85,1.84,31.27,31.27,0,0,1,2,3c1.57,2.53,3.05,4.93,6.55,6.85,10.29,5.6,10,13.73,9.6,22.34-.09,2.2-.18,4.49-.1,6.8a1.5,1.5,0,0,1-.41,1.06"/><path class="cls-3" d="M68.15,31.22a10.42,10.42,0,0,0-7.33-8.92,9.56,9.56,0,0,0-9.38,2,9.57,9.57,0,0,0-9.4-2,10.43,10.43,0,0,0-7.33,8.92c-.41,4,1.14,12,16,20.15a1.39,1.39,0,0,0,.69.18,1.46,1.46,0,0,0,.7-.18C67,43.22,68.56,35.25,68.15,31.22ZM51.44,48.45C42.07,43.17,37,37,37.59,31.51a7.52,7.52,0,0,1,5.3-6.44A7.15,7.15,0,0,1,45,24.74a6.9,6.9,0,0,1,5.32,2.58,1.45,1.45,0,0,0,1.11.52h0a1.47,1.47,0,0,0,1.11-.52A6.81,6.81,0,0,1,60,25.07a7.53,7.53,0,0,1,5.31,6.44C65.83,37,60.8,43.17,51.44,48.45Z"/></g></g></svg>