<?xml version="1.0" encoding="utf-8"?>
<!-- Generator: Adobe Illustrator 25.2.0, SVG Export Plug-In . SVG Version: 6.00 Build 0)  -->
<svg version="1.1" id="Layer_1" xmlns="http://www.w3.org/2000/svg" xmlns:xlink="http://www.w3.org/1999/xlink" x="0px" y="0px"
	 viewBox="0 0 54 53.9" style="enable-background:new 0 0 54 53.9;" xml:space="preserve">
<style type="text/css">
	.st0{fill:#004B8D;}
</style>
<g>
	<g>
		<path class="st0" d="M26.9,52.8C12.6,52.8,1,41.2,1,27C1,12.7,12.6,1.1,26.9,1.1c14.2,0,25.8,11.6,25.8,25.8
			C52.7,41.2,41.1,52.8,26.9,52.8z M26.9,4c-12.7,0-23,10.3-23,23s10.3,23,23,23s23-10.3,23-23C49.8,14.3,39.5,4,26.9,4z"/>
	</g>
	<g>
		<path class="st0" d="M25.3,46.9V42c-2.8,0-5.7-0.9-7.4-2.1l1.2-3.3c1.7,1.2,4.3,2.1,7,2.1c3.4,0,5.8-2,5.8-4.8
			c0-2.7-1.9-4.3-5.5-5.8c-5-1.9-8-4.2-8-8.4c0-4,2.9-7.1,7.3-7.8V7h3v4.7c2.9,0.1,4.9,0.9,6.3,1.7l-1.2,3.2c-1-0.6-3-1.7-6.1-1.7
			c-3.7,0-5.1,2.2-5.1,4.2c0,2.5,1.8,3.8,6,5.5c5,2,7.5,4.6,7.5,8.9c0,3.8-2.7,7.4-7.7,8.3v5h-3.1V46.9z"/>
	</g>
</g>
</svg>
