<svg xmlns="http://www.w3.org/2000/svg" width="103.28" height="103.28" viewBox="0 0 103.28 103.28"><circle cx="51.64" cy="51.64" r="51.14" fill="#fff" stroke="#ccc" stroke-miterlimit="10"/><path d="M81.75,44.7a7.83,7.83,0,0,0-1.67-4.83V28.5a3.75,3.75,0,1,0-2.18,0v9.44A7.83,7.83,0,0,0,70,37.87V28.5a3.75,3.75,0,1,0-2.18,0V39.7a7.84,7.84,0,0,0-1.8,5v11a25.28,25.28,0,0,0-23-14.77A20.14,20.14,0,0,0,22.9,61a16.32,16.32,0,0,0,6.86,13.3L21,80.56a1.09,1.09,0,0,0,.63,2H66.72c4.77,0,8.52-1.36,11.16-4a14.27,14.27,0,0,0,3.87-9.4V44.7ZM77.42,24.92A1.57,1.57,0,1,1,79,26.48,1.57,1.57,0,0,1,77.42,24.92Zm-10.1,0a1.57,1.57,0,1,1,1.57,1.56A1.57,1.57,0,0,1,67.32,24.92ZM25.08,61a18,18,0,0,1,18-18A22.88,22.88,0,0,1,66,65L51.43,69.38a13.15,13.15,0,0,0,1.1-5.29A10.87,10.87,0,0,0,41.68,53.24a8.91,8.91,0,0,0-8.9,8.9,7.34,7.34,0,0,0,7.34,7.34,6.09,6.09,0,0,0,6.09-6.09,5.1,5.1,0,0,0-5.09-5.09,4.3,4.3,0,0,0-4.29,4.29,3.66,3.66,0,0,0,3.65,3.65,1.09,1.09,0,0,0,0-2.18A1.47,1.47,0,0,1,39,62.59a2.12,2.12,0,0,1,2.11-2.11A2.92,2.92,0,0,1,44,63.39a3.92,3.92,0,0,1-3.91,3.91A5.17,5.17,0,0,1,35,62.14a6.73,6.73,0,0,1,6.72-6.72,8.68,8.68,0,0,1,8.67,8.67A11.13,11.13,0,0,1,39.24,75.21,14.18,14.18,0,0,1,25.08,61ZM76.32,77c-2.22,2.23-5.45,3.36-9.6,3.36H25l6.6-4.67a.55.55,0,0,0,.14-.12,16.27,16.27,0,0,0,7.48,1.81,13.28,13.28,0,0,0,10.58-5.25l.15,0,17.44-5.25a1.08,1.08,0,0,0,.77-1V44.7a5.7,5.7,0,0,1,11.39,0V69.12A12.28,12.28,0,0,1,76.32,77Z" fill="#004b8d"/><path d="M69.93,28.5a3.75,3.75,0,1,0-2.17,0m1.09-2a1.57,1.57,0,1,1,1.56-1.56A1.56,1.56,0,0,1,68.85,26.48Z" fill="#a6ce39"/><path d="M80,28.5a3.75,3.75,0,1,0-2.18,0m1.09-2a1.57,1.57,0,1,1,1.57-1.56A1.56,1.56,0,0,1,79,26.48Z" fill="#a6ce39"/></svg>