<svg xmlns="http://www.w3.org/2000/svg" viewBox="0 0 103.28 103.28">
  <g>
    <circle cx="51.64" cy="51.64" r="51.14" fill="#fff" stroke="#ccc" stroke-miterlimit="10"/>
    <g>
      <g>
        <path d="M85.16,42.24a4.72,4.72,0,0,0-2.67-2.52l-45-17.15a4.8,4.8,0,0,0-6.2,2.77L27,36.69h2.2l.73-1.9,5,1.9H37L30.16,34.1,32,29.19l19.68,7.5h2.06L32.29,28.51l.93-2.44a2.76,2.76,0,0,1,3.55-1.59l32,12.21h3.58A5.53,5.53,0,0,1,77.43,40l4.33,1.65a2.74,2.74,0,0,1,1.59,3.54l-.93,2.44L77.91,45.9v.78l4.25,1.62-1.87,4.91-2.38-.9v.78L80,53.9l-2.12,5.55v5.76l7.36-19.3A4.77,4.77,0,0,0,85.16,42.24Z" fill="#004b8d"/>
        <path d="M72.51,77.5H24.36A4.51,4.51,0,0,1,19.85,73V42.14a4.51,4.51,0,0,1,4.51-4.51H72.51A4.51,4.51,0,0,1,77,42.14V73A4.51,4.51,0,0,1,72.51,77.5ZM24.36,39.1a3,3,0,0,0-3,3V73a3,3,0,0,0,3,3H72.51a3,3,0,0,0,3-3V42.14a3,3,0,0,0-3-3Z" fill="#004b8d"/>
        <path d="M72,73.76H62.9a1.3,1.3,0,0,1-1.3-1.3V67.38a1.3,1.3,0,0,1,1.3-1.29H72a1.29,1.29,0,0,1,1.29,1.29v5.08A1.3,1.3,0,0,1,72,73.76ZM62.9,66.82a.56.56,0,0,0-.56.56v5.08a.56.56,0,0,0,.56.56H72a.56.56,0,0,0,.56-.56V67.38a.56.56,0,0,0-.56-.56Z" fill="#004b8d"/>
      </g>
      <path d="M71.91,55.81H48a.59.59,0,0,1,0-1.18H71.91a.59.59,0,0,1,0,1.18Z" fill="#004b8d"/>
      <path d="M64.5,59.57H48.06a.59.59,0,1,1,0-1.18H64.5a.59.59,0,0,1,0,1.18Z" fill="#004b8d"/>
    </g>
    <path d="M42.34,65.43a6.21,6.21,0,0,1-2.68,2.26,10,10,0,0,1-4.28.85V71h-1.3V68.47a9.32,9.32,0,0,1-5.34-2,6.31,6.31,0,0,1-2.28-4.58h5.48a2.94,2.94,0,0,0,.65,1.62,2.76,2.76,0,0,0,1.49.91V59.65c-.34-.1-.56-.18-.66-.22a24.16,24.16,0,0,1-3.6-1.28,6.54,6.54,0,0,1-2.41-1.92,5.93,5.93,0,0,1,0-6.62,6.37,6.37,0,0,1,2.76-2.12,10.76,10.76,0,0,1,3.91-.8V44.22h1.3v2.5a8.75,8.75,0,0,1,5.27,1.88A6.29,6.29,0,0,1,42.85,53H37.28a2.8,2.8,0,0,0-.6-1.48,2.5,2.5,0,0,0-1.3-.78v4.7l.93.3a28.44,28.44,0,0,1,3.57,1.34A6.49,6.49,0,0,1,42.25,59a5.25,5.25,0,0,1,1,3.32A5.66,5.66,0,0,1,42.34,65.43ZM32.47,54a5.32,5.32,0,0,0,1.61,1V50.64a2.54,2.54,0,0,0-1.59.57,1.81,1.81,0,0,0-.58,1.42A1.87,1.87,0,0,0,32.47,54ZM37.1,64a2,2,0,0,0,.63-1.52,1.83,1.83,0,0,0-.6-1.4,5.37,5.37,0,0,0-1.75-1v4.52A2.55,2.55,0,0,0,37.1,64Z" fill="#a6ce39"/>
  </g>
</svg>
