<?xml version="1.0" encoding="utf-8"?>
<!-- Generator: Adobe Illustrator 25.0.1, SVG Export Plug-In . SVG Version: 6.00 Build 0)  -->
<svg version="1.1" id="Layer_1" xmlns="http://www.w3.org/2000/svg" xmlns:xlink="http://www.w3.org/1999/xlink" x="0px" y="0px"
	 viewBox="0 0 111.7 44" style="enable-background:new 0 0 111.7 44;" xml:space="preserve">
<style type="text/css">
	.st0{fill:#004b8d;}
</style>
<g>
	<path class="st0" d="M1.4,10v30.6v0.1v2h109.2v-2v-0.1V10H1.4z M2.4,11h13.4l7.6-2L34,11h75.6v28.7H2.4V11z"/>
	<path class="st0" d="M49.4,19.3c0-0.2-0.1-0.4-0.3-0.5s-0.5-0.1-0.9-0.1h-0.9l-0.4,1.5h0.9c0.5,0,0.9-0.1,1.2-0.2
		C49.2,19.8,49.4,19.6,49.4,19.3L49.4,19.3z M49.6,16.9c0-0.2-0.1-0.3-0.2-0.4c-0.2-0.1-0.4-0.1-0.7-0.1h-0.8l-0.3,1.2h0.8
		c0.4,0,0.7-0.1,0.9-0.2C49.5,17.4,49.6,17.2,49.6,16.9L49.6,16.9z M51.5,16.7c0,0.4-0.1,0.7-0.4,0.9c-0.2,0.2-0.6,0.4-1.1,0.5l0,0
		c0.4,0.1,0.7,0.2,0.9,0.4c0.2,0.2,0.3,0.4,0.3,0.7c0,0.6-0.3,1.1-0.9,1.4c-0.6,0.3-1.5,0.5-2.6,0.5h-3l1.6-5.9h2.6
		c0.8,0,1.5,0.1,1.9,0.4C51.3,16,51.5,16.3,51.5,16.7L51.5,16.7z"/>
	<path class="st0" d="M56,18.2L56,18.2c-0.2,0-0.3,0-0.4,0s-0.3,0-0.4,0c-0.2,0-0.4,0-0.6,0c-0.2,0-0.4,0.1-0.6,0.1l-0.8,3h-1.7
		l1.2-4.4h1.7l-0.2,0.6c0.3-0.2,0.6-0.4,1-0.5c0.3-0.1,0.6-0.2,1-0.2c0.1,0,0.1,0,0.2,0c0.1,0,0.1,0,0.2,0L56,18.2z"/>
	<path class="st0" d="M59.7,19.9c0.1-0.2,0.3-0.4,0.3-0.6c0.1-0.2,0.1-0.5,0.1-0.8S60,18,59.9,17.9c-0.1-0.1-0.4-0.2-0.7-0.2
		c-0.2,0-0.4,0-0.6,0.1c-0.2,0.1-0.3,0.2-0.5,0.4c-0.1,0.2-0.2,0.4-0.3,0.6s-0.1,0.5-0.1,0.8s0.1,0.5,0.2,0.6
		c0.2,0.1,0.4,0.2,0.7,0.2c0.2,0,0.4,0,0.6-0.1C59.4,20.2,59.5,20,59.7,19.9L59.7,19.9z M61.9,18.4c0,0.4-0.1,0.8-0.2,1.2
		c-0.2,0.4-0.4,0.7-0.7,0.9c-0.3,0.3-0.7,0.5-1.1,0.6c-0.4,0.1-0.9,0.2-1.4,0.2c-0.8,0-1.4-0.2-1.8-0.5c-0.4-0.3-0.6-0.7-0.6-1.3
		c0-0.4,0.1-0.8,0.2-1.1c0.2-0.4,0.4-0.7,0.7-0.9c0.3-0.3,0.7-0.5,1.1-0.6c0.4-0.2,0.9-0.2,1.5-0.2c0.8,0,1.4,0.2,1.8,0.5
		C61.7,17.5,61.9,17.9,61.9,18.4L61.9,18.4z"/>
	<polygon class="st0" points="71.4,16.8 68.7,21.2 66.9,21.2 66.5,18.3 64.7,21.2 62.9,21.2 62.4,16.8 64.2,16.8 64.3,19.9 
		66.2,16.8 67.7,16.8 68,19.9 69.6,16.8 	"/>
	<path class="st0" d="M77.2,17.8c0,0.1,0,0.2,0,0.3c0,0.1,0,0.2-0.1,0.3l-0.8,2.9h-1.7l0.6-2.2c0-0.2,0.1-0.3,0.1-0.4s0-0.2,0-0.3
		c0-0.2-0.1-0.3-0.2-0.4s-0.3-0.1-0.6-0.1c-0.1,0-0.3,0-0.5,0.1c-0.2,0-0.4,0.1-0.6,0.2l-0.9,3.1H71l1.2-4.4h1.7l-0.1,0.5
		c0.3-0.2,0.7-0.3,0.9-0.4c0.3-0.1,0.6-0.2,0.9-0.2c0.5,0,0.8,0.1,1.1,0.3C77,17.2,77.2,17.5,77.2,17.8L77.2,17.8z"/>
	<path class="st0" d="M85.1,19.3c0-0.2-0.1-0.4-0.3-0.5c-0.2-0.1-0.5-0.1-0.9-0.1H83l-0.4,1.5h0.9c0.5,0,0.9-0.1,1.2-0.2
		C85,19.8,85.1,19.6,85.1,19.3L85.1,19.3z M85.4,16.9c0-0.2-0.1-0.3-0.2-0.4c-0.2-0.1-0.4-0.1-0.7-0.1h-0.8l-0.3,1.2h0.8
		c0.4,0,0.7-0.1,0.9-0.2C85.2,17.4,85.4,17.2,85.4,16.9L85.4,16.9z M87.3,16.7c0,0.4-0.1,0.7-0.4,0.9c-0.2,0.2-0.6,0.4-1.1,0.5l0,0
		c0.4,0.1,0.7,0.2,0.9,0.4c0.2,0.2,0.3,0.4,0.3,0.7c0,0.6-0.3,1.1-0.9,1.4s-1.5,0.5-2.6,0.5h-3l1.6-5.9h2.6c0.8,0,1.5,0.1,1.9,0.4
		C87,16,87.3,16.3,87.3,16.7L87.3,16.7z"/>
	<path class="st0" d="M90.4,21.4c-0.9,0-1.6-0.2-2.1-0.5s-0.7-0.8-0.7-1.4c0-0.4,0.1-0.8,0.2-1.1c0.2-0.3,0.4-0.6,0.7-0.9
		c0.3-0.2,0.6-0.4,1.1-0.6c0.4-0.1,0.9-0.2,1.4-0.2c0.8,0,1.4,0.1,1.8,0.4s0.6,0.7,0.6,1.2c0,0.2,0,0.4-0.1,0.5
		c0,0.2-0.1,0.3-0.2,0.5h-3.9l0,0l0,0c0,0.3,0.1,0.5,0.4,0.7s0.7,0.3,1.2,0.3c0.4,0,0.7-0.1,1-0.2s0.6-0.2,0.9-0.3h0.2L92.6,21
		c-0.3,0.1-0.7,0.2-1,0.3C91.2,21.3,90.8,21.4,90.4,21.4L90.4,21.4z M91.6,18.5v-0.1v-0.1c0-0.2-0.1-0.4-0.2-0.5
		c-0.2-0.1-0.4-0.2-0.7-0.2c-0.3,0-0.6,0.1-0.9,0.2c-0.2,0.2-0.4,0.4-0.5,0.7H91.6L91.6,18.5z"/>
	<path class="st0" d="M97,20.8c-0.1,0.1-0.2,0.1-0.4,0.2c-0.1,0.1-0.3,0.1-0.4,0.2c-0.2,0.1-0.3,0.1-0.5,0.1s-0.4,0-0.6,0
		c-0.4,0-0.8-0.1-1.1-0.3c-0.3-0.2-0.4-0.5-0.4-0.8s0.1-0.6,0.3-0.9c0.2-0.2,0.5-0.4,0.9-0.6c0.4-0.1,0.8-0.2,1.3-0.3
		c0.5-0.1,1-0.1,1.6-0.1c0,0,0,0,0-0.1v-0.1c0-0.2-0.1-0.3-0.3-0.4c-0.2-0.1-0.5-0.1-0.9-0.1c-0.3,0-0.6,0-0.9,0.1s-0.6,0.1-0.8,0.2
		h-0.2l0.2-1c0.2,0,0.5-0.1,0.9-0.1c0.4-0.1,0.8-0.1,1.2-0.1c0.8,0,1.4,0.1,1.8,0.3c0.4,0.2,0.6,0.5,0.6,0.8c0,0.1,0,0.1,0,0.2
		s0,0.2,0,0.2l-0.8,3h-1.7L97,20.8L97,20.8z M97.4,19.1c-0.3,0-0.6,0-0.8,0.1c-0.3,0-0.5,0.1-0.7,0.1c-0.2,0.1-0.3,0.1-0.4,0.2
		s-0.2,0.2-0.2,0.4c0,0.2,0.1,0.3,0.2,0.3c0.1,0.1,0.3,0.1,0.6,0.1c0.2,0,0.3,0,0.5-0.1s0.4-0.1,0.5-0.2L97.4,19.1L97.4,19.1z"/>
	<path class="st0" d="M104.2,18.2H104c-0.1,0-0.2,0-0.3,0c-0.1,0-0.3,0-0.4,0c-0.2,0-0.4,0-0.6,0s-0.4,0.1-0.6,0.1l-0.8,3h-1.7
		l1.2-4.4h1.7l-0.2,0.6c0.3-0.2,0.6-0.4,1-0.5c0.3-0.1,0.6-0.2,1-0.2c0.1,0,0.1,0,0.2,0s0.1,0,0.2,0L104.2,18.2z"/>
	<path class="st0" d="M33.1,6.8c-1.2-0.7-2.2-1.5-1.6-2.6l0,0c0.4-1,1.5-1.5,2.9-1.3c1.4,0.3,2.6,1,3,2.7c0.3,1,0.1,1.6-0.4,2.3
		c-0.1,0.2-0.5,0.5-0.7,0.5C34.7,8.7,34,7.3,33.1,6.8L33.1,6.8L33.1,6.8z M29.7,13.1c-0.4-0.2-1.4-0.7-1.9-0.9
		c-0.7-0.2-0.6-1.5,0.4-1.6c0.3,0,0.8,0.1,1.3,0.4c0.5,0.2,1,0.5,1.1,0.8C31.2,12.6,30.3,13.5,29.7,13.1L29.7,13.1L29.7,13.1z
		 M25.9,18.5c-1.1-0.1-1.8-0.2-2.5-0.2c-0.6,0-1.4,0-2.5,0.2c-1.7,0.2-2.7-2.6-0.7-3.8c0.5-0.3,1.8-0.5,3.2-0.5
		c1.4,0,2.6,0.2,3.2,0.5C28.6,15.9,27.6,18.7,25.9,18.5L25.9,18.5L25.9,18.5z M18.8,12.2c-0.4,0.1-1.5,0.6-1.9,0.9
		c-0.6,0.4-1.5-0.5-0.9-1.3c0.1-0.2,0.6-0.5,1.1-0.8c0.5-0.2,1-0.4,1.3-0.4C19.4,10.7,19.5,12,18.8,12.2L18.8,12.2L18.8,12.2z
		 M14.3,6.8c-0.9,0.5-1.6,1.9-3.2,1.6c-0.2,0-0.6-0.4-0.7-0.5C9.8,7.2,9.7,6.5,9.9,5.6c0.5-1.7,1.6-2.4,3-2.7s2.5,0.3,2.9,1.3
		c0,0,0,0.1,0,0C16.5,5.3,15.5,6.1,14.3,6.8L14.3,6.8L14.3,6.8z M39.8,5.1c-0.6-2.6-2.4-4.1-5-4.4c-3-0.4-4.5,1.5-6,3.3
		c-1.5-0.7-8.5-0.8-10.1,0c-1.4-1.9-2.8-3.5-6.2-3.3c-1.8,0.1-4,1.4-4.8,4.2C7,7.4,8.4,9.7,10.6,10.6c-1.3,1.8-2.7,7.3-2.4,10.6
		h31.1c0.3-4-1-8.5-2.5-10.6C38.9,9.8,40.4,7.6,39.8,5.1L39.8,5.1L39.8,5.1z"/>
	<path class="st0" d="M12.9,37.9c-1.1,0-2.2-0.1-3-0.4c-0.9-0.3-1.6-0.7-2.1-1.2s-0.9-1.2-1-2s0-1.7,0.3-2.7s0.7-1.8,1.3-2.6
		c0.6-0.8,1.3-1.4,2.2-2c0.8-0.5,1.8-0.9,2.9-1.2c1.1-0.3,2.2-0.4,3.4-0.4c0.6,0,1.2,0,1.7,0.1s1,0.1,1.4,0.2s0.8,0.2,1.1,0.3
		c0.3,0.1,0.6,0.2,0.9,0.3l-1,3h-0.5c-0.2-0.1-0.4-0.3-0.6-0.5s-0.5-0.4-0.8-0.5c-0.3-0.2-0.7-0.3-1.1-0.4s-0.9-0.2-1.4-0.2
		c-0.6,0-1.1,0.1-1.7,0.2c-0.5,0.1-1.1,0.4-1.6,0.7c-0.5,0.3-1,0.7-1.4,1.2s-0.7,1.1-0.9,1.8c-0.2,0.8-0.3,1.4-0.2,1.9
		s0.3,0.9,0.7,1.2c0.3,0.3,0.7,0.5,1.2,0.6s1,0.2,1.5,0.2s1-0.1,1.5-0.2c0.5-0.1,1-0.3,1.5-0.5c0.4-0.2,0.7-0.3,1.1-0.5
		c0.3-0.2,0.6-0.3,0.9-0.5h0.4l-0.9,2.9c-0.4,0.1-0.8,0.3-1.2,0.4c-0.4,0.1-0.8,0.2-1.2,0.3c-0.5,0.1-1,0.2-1.5,0.3
		C14.3,37.8,13.7,37.9,12.9,37.9L12.9,37.9z"/>
	<polygon class="st0" points="70.2,25.6 62.4,37.6 58,37.6 57.7,29.8 52.5,37.6 48.2,37.6 47.7,25.6 51.9,25.6 51.7,33.9 57.1,25.6 
		61,25.6 61.2,33.9 66.2,25.6 	"/>
	<path class="st0" d="M102.6,37.6h-3.7l1.4-4.5c0.1-0.4,0.2-0.7,0.3-1.1c0.1-0.4,0.1-0.6,0-0.8c-0.1-0.2-0.2-0.3-0.5-0.4
		c-0.2-0.1-0.6-0.1-1.1-0.1c-0.3,0-0.7,0-1.1,0.1s-0.8,0.2-1.3,0.4l-2,6.4h-3.7L94.8,25h3.7l-1.4,4.5c0.8-0.4,1.5-0.7,2.2-0.9
		c0.7-0.2,1.4-0.3,2.1-0.3c1.3,0,2.1,0.3,2.7,0.9c0.5,0.6,0.6,1.4,0.3,2.6L102.6,37.6z"/>
	<path class="st0" d="M27.7,36.7c-0.2,0.1-0.5,0.3-0.9,0.4c-0.3,0.2-0.7,0.3-1,0.4c-0.4,0.1-0.8,0.2-1.2,0.3
		c-0.4,0.1-0.9,0.1-1.3,0.1c-1.1,0-1.9-0.3-2.5-0.8s-0.7-1.2-0.5-2c0.2-0.7,0.6-1.2,1.1-1.6c0.5-0.4,1.1-0.8,1.9-1S25,32.1,26,32
		c1.1-0.1,2.1-0.2,3.2-0.2l0,0c0.2-0.5,0-0.8-0.5-1s-1.2-0.3-2.2-0.3c-0.6,0-1.3,0.1-2,0.3c-0.7,0.2-1.3,0.3-1.6,0.4h-0.3l0.7-2.2
		c0.4-0.1,1.1-0.2,2-0.3c0.9-0.1,1.8-0.2,2.7-0.2c2.1,0,3.6,0.3,4.3,0.8c0.8,0.5,1,1.3,0.7,2.4l-1.9,6.2h-3.7L27.7,36.7L27.7,36.7z
		 M28.2,35.3l0.6-1.9c-0.5,0-1.1,0.1-1.7,0.1c-0.6,0.1-1.1,0.1-1.4,0.2c-0.4,0.1-0.7,0.2-1,0.4c-0.2,0.2-0.4,0.4-0.5,0.7
		c-0.1,0.2-0.1,0.3-0.1,0.5c0,0.1,0.1,0.2,0.2,0.3s0.3,0.2,0.5,0.2s0.5,0.1,1,0.1c0.4,0,0.8-0.1,1.2-0.2
		C27.4,35.6,27.8,35.5,28.2,35.3L28.2,35.3z"/>
	<path class="st0" d="M43.1,31.3h-0.3c-0.1,0-0.4-0.1-0.7-0.1s-0.6,0-0.9,0c-0.5,0-1,0-1.4,0.1s-0.9,0.1-1.4,0.3l-1.9,6.1h-3.7
		l2.8-9.1h3.7l-0.4,1.3c1-0.5,1.8-0.9,2.5-1.1s1.2-0.3,1.8-0.3c0.1,0,0.3,0,0.4,0c0.2,0,0.3,0,0.4,0L43.1,31.3z"/>
	<path class="st0" d="M73.8,36.7c-0.2,0.1-0.5,0.3-0.9,0.4c-0.3,0.2-0.7,0.3-1,0.4c-0.4,0.1-0.8,0.2-1.2,0.3
		c-0.4,0.1-0.9,0.1-1.3,0.1c-1.1,0-1.9-0.3-2.5-0.8s-0.7-1.2-0.5-2c0.2-0.7,0.6-1.2,1.1-1.6c0.5-0.4,1.1-0.8,1.9-1s1.7-0.4,2.7-0.5
		c1.1-0.1,2.1-0.2,3.2-0.2l0,0c0.2-0.5,0-0.8-0.5-1s-1.2-0.3-2.2-0.3c-0.6,0-1.3,0.1-2,0.3c-0.7,0.2-1.3,0.3-1.6,0.4h-0.3l0.7-2.2
		c0.4-0.1,1.1-0.2,2-0.3c0.9-0.1,1.8-0.2,2.7-0.2c2.1,0,3.6,0.3,4.3,0.8c0.8,0.5,1,1.3,0.7,2.4l-1.9,6.2h-3.7L73.8,36.7L73.8,36.7z
		 M74.3,35.3l0.6-1.9c-0.5,0-1.1,0.1-1.7,0.1c-0.6,0.1-1.1,0.1-1.4,0.2c-0.4,0.1-0.7,0.2-1,0.4c-0.2,0.2-0.4,0.4-0.5,0.7
		c-0.1,0.2-0.1,0.3-0.1,0.5c0,0.1,0.1,0.2,0.2,0.3s0.3,0.2,0.5,0.2s0.5,0.1,1,0.1c0.4,0,0.8-0.1,1.2-0.2
		C73.5,35.6,73.9,35.5,74.3,35.3L74.3,35.3z"/>
	<path class="st0" d="M90.6,34.7c-0.3,0.9-1.1,1.7-2.3,2.3c-1.3,0.6-2.8,0.9-4.7,0.9c-1,0-1.9-0.1-2.7-0.2c-0.8-0.2-1.4-0.3-1.9-0.5
		l0.7-2.4H80c0.2,0.1,0.3,0.2,0.5,0.3s0.5,0.2,0.9,0.4c0.3,0.1,0.8,0.2,1.2,0.3c0.5,0.1,1,0.1,1.5,0.1c0.7,0,1.3-0.1,1.7-0.2
		c0.4-0.1,0.6-0.3,0.7-0.6c0.1-0.2,0-0.4-0.2-0.5s-0.5-0.2-1.1-0.3c-0.3,0-0.6-0.1-1.1-0.2c-0.5-0.1-0.9-0.1-1.2-0.2
		c-1-0.2-1.7-0.5-2-1c-0.4-0.5-0.4-1-0.2-1.7c0.3-0.9,1-1.6,2.3-2.2c1.2-0.6,2.8-0.9,4.6-0.9c0.9,0,1.7,0.1,2.4,0.2
		c0.8,0.1,1.3,0.3,1.7,0.4L91,31h-0.3c-0.5-0.3-1-0.5-1.7-0.7c-0.6-0.2-1.3-0.3-2.1-0.3c-0.6,0-1.1,0.1-1.6,0.2
		c-0.4,0.1-0.7,0.3-0.8,0.5c-0.1,0.2,0,0.4,0.1,0.5c0.2,0.1,0.6,0.2,1.2,0.3c0.4,0.1,0.7,0.1,1.2,0.2c0.4,0.1,0.8,0.1,1.3,0.2
		c0.9,0.2,1.5,0.5,1.9,0.9C90.7,33.6,90.8,34.1,90.6,34.7L90.6,34.7z"/>
	<g>
		<path class="st0" d="M102.6,20.2c0.3,0,0.5,0.2,0.5,0.5s-0.2,0.5-0.5,0.5s-0.5-0.2-0.5-0.5C102.1,20.5,102.3,20.2,102.6,20.2
			L102.6,20.2z M102.6,20.3c-0.2,0-0.4,0.2-0.4,0.4c0,0.2,0.2,0.4,0.4,0.4c0.2,0,0.4-0.2,0.4-0.4S102.8,20.3,102.6,20.3L102.6,20.3z
			 M102.5,21L102.5,21l-0.1-0.5c0,0,0.1,0,0.2,0s0.1,0,0.2,0l0.1,0.1c0,0.1,0,0.1-0.1,0.1l0,0l0.1,0.1c0,0.1,0,0.1,0,0.1h-0.1v-0.1
			c0-0.1,0-0.1-0.1-0.1h-0.1L102.5,21L102.5,21z M102.5,20.7L102.5,20.7c0.1,0,0.2,0,0.2-0.1c0,0,0-0.1-0.1-0.1c0,0,0,0-0.1,0V20.7z
			"/>
	</g>
</g>
</svg>
