<svg xmlns="http://www.w3.org/2000/svg" viewBox="0 0 34.31 41.67"><defs><style>.cls-1{fill:#2e99cf;}</style></defs><title>icon-social-youtube</title><g id="Layer_2" data-name="Layer 2"><g id="Layer_1-2" data-name="Layer 1"><path class="cls-1" d="M21.63,28.91a1.75,1.75,0,0,0-.14-.64.7.7,0,0,0-.62-.43,1.11,1.11,0,0,0-.85.32.55.55,0,0,0-.14.21v7l.07.09a1.34,1.34,0,0,0,.72.45.71.71,0,0,0,.93-.56,1.87,1.87,0,0,0,0-.34Q21.65,32,21.63,28.91Zm0,0a1.75,1.75,0,0,0-.14-.64.7.7,0,0,0-.62-.43,1.11,1.11,0,0,0-.85.32.55.55,0,0,0-.14.21v7l.07.09a1.34,1.34,0,0,0,.72.45.71.71,0,0,0,.93-.56,1.87,1.87,0,0,0,0-.34Q21.65,32,21.63,28.91Zm7.64-10.29q-12.1-.26-24.23,0a5.15,5.15,0,0,0-5,5.15V36.38a5.15,5.15,0,0,0,5,5.16q12.12.26,24.23,0a5.15,5.15,0,0,0,5-5.16V23.77A5.15,5.15,0,0,0,29.27,18.62ZM7.41,37.53H5.08V24.37H2.67v-2.2H9.83v2.19H7.41Zm8.34-5.46v5.46H13.69V36.28l-.16.17a3.77,3.77,0,0,1-1.59,1.14,2,2,0,0,1-1,.09,1.2,1.2,0,0,1-.93-.75,2.82,2.82,0,0,1-.21-1.19c0-1.5,0-9.46,0-9.54h2.06c0,.07,0,5.79,0,8.57a2.32,2.32,0,0,0,0,.46.5.5,0,0,0,.72.4,2.17,2.17,0,0,0,1-.78.36.36,0,0,0,0-.21V26.19h2.07Zm7.84,4.37a1.68,1.68,0,0,1-1.75,1.24,2.28,2.28,0,0,1-1.76-.8l-.2-.21v.86H17.81V22.16h2.07v5.06a1.79,1.79,0,0,1,.22-.35,2.43,2.43,0,0,1,1.19-.76,1.8,1.8,0,0,1,2.14,1,3.94,3.94,0,0,1,.33,1.72v6.45A3.63,3.63,0,0,1,23.59,36.44ZM31.22,36A2.53,2.53,0,0,1,29,37.8a3.49,3.49,0,0,1-2-.2,2.75,2.75,0,0,1-1.56-2,5.61,5.61,0,0,1-.15-1.29c0-1.68,0-3.36,0-5.05a3.35,3.35,0,0,1,.82-2.36,3,3,0,0,1,2.57-1,4,4,0,0,1,.9.16,2.49,2.49,0,0,1,1.7,2,5.6,5.6,0,0,1,.11,1.15c0,.9,0,2.88,0,2.88h-4V35a.92.92,0,1,0,1.84,0V33.5h2.13A10.35,10.35,0,0,1,31.22,36Zm-1.89-7.23a.92.92,0,1,0-1.84,0v1.59h1.84Zm-7.84-.51a.7.7,0,0,0-.62-.43,1.11,1.11,0,0,0-.85.32.55.55,0,0,0-.14.21v7l.07.09a1.34,1.34,0,0,0,.72.45.71.71,0,0,0,.93-.56,1.87,1.87,0,0,0,0-.34q0-3,0-6.09A1.75,1.75,0,0,0,21.49,28.27Z"/><path class="cls-1" d="M26.77,4v11.4H24.65V14.22c-.23.23-.43.44-.65.64a3,3,0,0,1-1.34.7,1.35,1.35,0,0,1-1.72-.92,3.07,3.07,0,0,1-.13-.85V4H22.9v8.7a2,2,0,0,0,0,.34.48.48,0,0,0,.68.41,2.29,2.29,0,0,0,1-.78.36.36,0,0,0,0-.21V4Z"/><path class="cls-1" d="M9.28,6C8.82,4.08,7.86,0,7.86,0H5.46S7.3,6.13,8.13,8.86a1.1,1.1,0,0,1,0,.31v6.27h2.22V9.17a1.1,1.1,0,0,1,0-.31C11.26,6.13,13.11,0,13.11,0H10.7s-1,4.08-1.42,6Z"/><path class="cls-1" d="M16,3.75h0a3,3,0,0,0-3,3V12.7a3,3,0,0,0,3,3h0a3,3,0,0,0,3-3V6.78A3,3,0,0,0,16,3.75Zm.88,9.07a.88.88,0,0,1-1.75,0V6.66a.88.88,0,1,1,1.75,0Z"/></g></g></svg>