<svg xmlns="http://www.w3.org/2000/svg" viewBox="0 0 48.49 55.41"><defs><style>.cls-1{fill:#2e99cf;}</style></defs><title>icon-shopping-bag</title><g id="Layer_2" data-name="Layer 2"><g id="Layer_2-2" data-name="Layer 2"><g id="_14hRWe" data-name="14hRWe"><path class="cls-1" d="M47.17,55.41H1.33A2.35,2.35,0,0,1,0,54.08V53a.63.63,0,0,0,.07-.22C.24,51,.4,49.21.56,47.4c.3-3.28.59-6.56.89-9.85.34-3.64.67-7.28,1-10.93s.64-7.25,1-10.88a1.81,1.81,0,0,1,2.1-1.9h8.31c0-.23,0-.4,0-.57,0-1.2,0-2.4.06-3.6a10.09,10.09,0,0,1,6.7-9A18.61,18.61,0,0,1,23.3,0h1.89c.11,0,.21.07.32.09a9.45,9.45,0,0,1,3.41,1,10,10,0,0,1,5.54,7.61,40.08,40.08,0,0,1,.18,4.53c0,.18,0,.36,0,.57H43a1.81,1.81,0,0,1,2.1,1.9q.45,4.78.87,9.56l1.08,12q.61,6.69,1.22,13.38c.07.8.18,1.59.27,2.39v1A2.33,2.33,0,0,1,47.17,55.41ZM17.32,17.33v.45c0,1,0,2,0,2.94a.87.87,0,0,0,.38.82,3.39,3.39,0,0,1,.53,4.91,3.45,3.45,0,0,1-5,.33,3.31,3.31,0,0,1-.16-4.85,2.25,2.25,0,0,0,.76-2c0-.71,0-1.42,0-2.13a3.07,3.07,0,0,0,0-.42h-7L3.63,51.89H44.86q-1.57-17.31-3.14-34.54H34.65c0,1.27,0,2.49,0,3.72,0,.13.16.29.28.38a3.39,3.39,0,0,1,1.42,2.86,3.47,3.47,0,0,1-2.78,3.33,3.52,3.52,0,0,1-3.85-2,3.48,3.48,0,0,1,1.15-4.19.77.77,0,0,0,.28-.52c0-.95,0-1.89,0-2.84v-.74Zm13.84-3.51c0-1.27,0-2.5,0-3.72A4.9,4.9,0,0,0,31,9a6.92,6.92,0,0,0-13.7,1.2c0,1.2,0,2.39,0,3.6Z"/></g></g></g></svg>