<svg xmlns="http://www.w3.org/2000/svg" viewBox="0 0 103.28 103.28"><defs><style>.cls-1{fill:#fff;stroke:#ccc;stroke-miterlimit:10;}.cls-2{fill:#004b8d;}.cls-2,.cls-3{fill-rule:evenodd;}.cls-3{fill:#a6ce39;}</style></defs><title>icon-store</title><g id="Layer_2" data-name="Layer 2"><g id="Layer_1-2" data-name="Layer 1"><circle class="cls-1" cx="51.64" cy="51.64" r="51.14"/><path class="cls-2" d="M81.92,48.3V77.85H22.34V48.3a8.82,8.82,0,0,0,3.43-1.07,8.66,8.66,0,0,0,1.1-.72V72.93H40V46a8.22,8.22,0,0,0,4.77,2.23V65.18H77.42V46.51a8.48,8.48,0,0,0,4.5,1.79Z"/><path class="cls-3" d="M31,26.53H73.22L89,41C89,49,76.74,49,76.74,41c0,8.08-12.31,8.08-12.31,0,0,8.08-12.28,8.08-12.28,0,0,8.08-12.31,8.08-12.31,0,0,8.08-12.31,8.08-12.31,0,0,8.08-12.28,8.08-12.28,0Z"/></g></g></svg>