<svg xmlns="http://www.w3.org/2000/svg" viewBox="0 0 103.28 103.28"><defs><style>.cls-1{fill:#fff;stroke:#ccc;stroke-miterlimit:10;}.cls-2{fill:#a6ce39;}.cls-2,.cls-4{fill-rule:evenodd;}.cls-3{fill:#2e99cf;}.cls-4{fill:#004b8d;}</style></defs><title>icon-washWindow</title><g id="Layer_2" data-name="Layer 2"><g id="Layer_1-2" data-name="Layer 1"><circle class="cls-1" cx="51.64" cy="51.64" r="51.14"/><path class="cls-2" d="M49.94,50.14a.06.06,0,0,1,0-.06l.94-7.32a0,0,0,0,1,.06,0l.17,0a0,0,0,0,1,0,.06l-.93,7.32s0,.05-.06,0Z"/><path class="cls-2" d="M47,46.48a2.41,2.41,0,0,0,.12-.92h.09l.86.11a.9.9,0,0,0,.83-.3,2.88,2.88,0,0,0,.53-.89A9.17,9.17,0,0,0,50,42.57s0-.08,0-.12H50l.46.19s.06,0,0,.08a.06.06,0,0,0,0,0L49.6,50c0,.07,0,.1-.11.11l-.5.07s0-.07,0-.11a9.08,9.08,0,0,0,0-1.65,3.4,3.4,0,0,0-.24-1.18,1,1,0,0,0-.47-.57.9.9,0,0,0-.32-.09l-.87-.12Z"/><path class="cls-3" d="M85.62,50c0-1.36-2.22-2.82-4.31-2.82a3.13,3.13,0,0,0-3.18,2.15L74,42.71c-1.31-2.12-4.68-3.06-16.94-3.06s-15.63.94-16.94,3.06l-4.09,6.62a3.13,3.13,0,0,0-3.18-2.15c-2.09,0-4.3,1.46-4.3,2.82s2.21,2.13,4.3,2.13l.53,0C32.2,53.19,31,54.18,31,54.18a5.54,5.54,0,0,0-1.55,3.54v9a2.68,2.68,0,0,0,1.32,2.12v4.77a1.5,1.5,0,0,0,1.5,1.49h6.6a1.49,1.49,0,0,0,1.49-1.49V71.7a126.9,126.9,0,0,0,16.74,1,126.79,126.79,0,0,0,16.74-1v1.93a1.5,1.5,0,0,0,1.5,1.49h6.6a1.49,1.49,0,0,0,1.49-1.49V68.86a2.68,2.68,0,0,0,1.32-2.12v-9a5.49,5.49,0,0,0-1.55-3.54s-1.2-1-2.42-2.07l.53,0C83.4,52.13,85.62,51.37,85.62,50ZM41.51,43.54c.86-1.39,3.84-2.31,15.59-2.31s14.73.92,15.59,2.31l3.91,7s-5,1.06-19.5,1.06-19.5-1.06-19.5-1.06Zm-5.22,18a3.15,3.15,0,0,1,0-6.3c1.68,0,7.17,3.22,7.17,5S38,61.52,36.29,61.52Zm30,7.43H47.93c-1.91,0-3.47-2.36-3.47-5.26H69.74C69.74,66.59,68.19,69,66.28,69ZM81,58.37a3.1,3.1,0,0,1-3,3.15c-1.68,0-7.17.4-7.17-1.34s5.49-5,7.17-5A3.1,3.1,0,0,1,81,58.37Z"/><path class="cls-4" d="M19.31,32.17a3.84,3.84,0,0,0-.12.91,3.73,3.73,0,1,0,7.46.13,4,4,0,0,0-.14-1Z"/><path class="cls-4" d="M29.56,31.75a3.64,3.64,0,0,0-.8-.43,7,7,0,0,0-2.07-.41c-.09,0-.15,0-.18-.12A3.78,3.78,0,0,0,23.3,28l.08.05a2.83,2.83,0,0,1,.88.66,4.43,4.43,0,0,1,.93,1.65,5.78,5.78,0,0,1,.29,1.26h-1a3.87,3.87,0,0,0-.17-1.22A7.71,7.71,0,0,0,23,28L23,28a.5.5,0,0,0,.41-.52.48.48,0,0,0-.95,0c0,.26.12.44.47.54l0,.05c-.17.24-.35.47-.5.72a6,6,0,0,0-.94,2.41c0,.17,0,.34,0,.51h-1c0-.05,0-.11,0-.16a5.87,5.87,0,0,1,.78-2.19,3.12,3.12,0,0,1,1.38-1.26l0,0a3.79,3.79,0,0,0-3.51,3.16,4.08,4.08,0,0,0,0,.61h0v.05H29.67Z"/><path class="cls-2" d="M41.24,44.54l4.9.63c.32,0,.52.1.59.19a1.89,1.89,0,0,1,.29.51.6.6,0,0,1-.25.64l-.17.11a1.13,1.13,0,0,1-.68.05l-9.7-1.25a3.6,3.6,0,0,1-2.28-.83c-.32-.54.58-.79,1.79-.73.22,0,.44,0,.66.06Z"/><path class="cls-4" d="M21.67,55.24c-.32,2.39-.61,4.65-.9,6.91-.46,3.49-.91,7-1.37,10.46-.08.64-.17,1.28-.24,1.92a1.67,1.67,0,0,1-1.81,1.59,1.62,1.62,0,0,1-1.41-2L18,58.21c.14-1.05.4-3.2.75-5.64.07-.87.14-1.71.21-2.56.25-3.45.49-6.9.75-10.34a2.5,2.5,0,0,1,2.69-2.33A6.83,6.83,0,0,1,25,38c2.27,1.33,5.15,4.2,10.1,4.82.24.09,1.57,1.24,1.21,1.82a1.57,1.57,0,0,1-1.65,1.21c-.21,0-6.65-1.11-8.49-2.37-.14-.05-.81,10.64-.34,11.41.95,1.55,1.49,3.6,2.39,5.18a1.73,1.73,0,0,1,.13,1.58q-2,5.07-4.07,10.13a1.6,1.6,0,0,1-1.75,1.07,1.54,1.54,0,0,1-1.38-1.39,2.34,2.34,0,0,1,.19-1q1.77-4.47,3.58-8.91a.8.8,0,0,0-.05-.78c-1-1.67-1.89-3.34-2.84-5Z"/></g></g></svg>