<svg xmlns="http://www.w3.org/2000/svg" viewBox="0 0 103.28 103.28"><defs><style>.cls-1{fill:#fff;stroke:#ccc;stroke-miterlimit:10;}.cls-2{fill:#004b8d;}.cls-3{fill:#a6ce39;}</style></defs><title>icon-group</title><g id="Layer_2" data-name="Layer 2"><g id="Layer_1-2" data-name="Layer 1"><circle class="cls-1" cx="51.64" cy="51.64" r="51.14"/><path class="cls-2" d="M30.41,25.52l7.11-3.31L47.63,41.94,40.81,45.3c-1.34,3.15,5.4,15.73,8.25,15.94.23-.15,6.68-3.33,6.68-3.33L66,77.75l-7.14,3.5C39.22,90.23,11.11,35.58,30.41,25.52Zm4.83,3.18L32.68,30C19.44,36.87,43.13,83,56.81,76.7l2.43-1.18-5.68-11L51,65.8C43.08,69.67,30.33,45.25,38.35,41l2.52-1.25Z"/><path class="cls-3" d="M54,48.42l7.29,2.17a7.62,7.62,0,0,0-5.12-9.47Z"/><path class="cls-3" d="M58.47,33.26A15.82,15.82,0,0,1,69.11,52.93l-4.49-1.34a11.12,11.12,0,0,0-7.49-13.83Z"/><path class="cls-3" d="M60.84,25.29a24.15,24.15,0,0,1,16.24,30l-4.61-1.37a19.33,19.33,0,0,0-13-24Z"/></g></g></svg>