<svg xmlns="http://www.w3.org/2000/svg" viewBox="0 0 103.28 103.28"><defs><style>.cls-1,.cls-2{fill:#fff;}.cls-1{stroke:#ccc;stroke-miterlimit:10;}.cls-3{fill:#2e99cf;}.cls-4{fill:#004b8d;}.cls-5{fill:#a6ce39;}</style></defs><title>icon-tablet</title><g id="Layer_2" data-name="Layer 2"><g id="Layer_1-2" data-name="Layer 1"><circle class="cls-1" cx="51.64" cy="51.64" r="51.14"/><rect class="cls-2" x="37.24" y="26.05" width="40.36" height="53.11"/><path class="cls-3" d="M33,21.8a4.26,4.26,0,0,0-4.25,4.25V79.16h8.5V26.05A4.25,4.25,0,0,0,33,21.8Z"/><path class="cls-3" d="M37.24,79.16A4.25,4.25,0,1,0,33,83.41H71.23V79.16Z"/><path class="cls-4" d="M78.67,80.22H36.18V25H78.67ZM38.3,78.1H76.54v-51H38.3Z"/><path class="cls-4" d="M33,84.47a5.31,5.31,0,1,1,5.31-5.31H36.18A3.19,3.19,0,1,0,33,82.35Z"/><polygon class="cls-4" points="72.29 84.47 32.99 84.47 32.99 82.34 70.17 82.34 70.17 79.16 72.29 79.16 72.29 84.47"/><path class="cls-4" d="M29.81,79.16H27.68V26.05a5.31,5.31,0,1,1,10.62,0H36.18a3.19,3.19,0,0,0-6.37,0Z"/><rect class="cls-5" x="42.55" y="37.74" width="13.81" height="12.75"/><rect class="cls-3" x="58.48" y="37.74" width="13.81" height="12.75"/><rect class="cls-5" x="42.55" y="52.61" width="13.81" height="12.75"/><rect class="cls-5" x="58.48" y="52.61" width="13.81" height="12.75"/><rect class="cls-4" x="42.55" y="31.36" width="20.18" height="2.12"/><rect class="cls-4" x="42.55" y="67.48" width="8.5" height="2.12"/><rect class="cls-4" x="53.17" y="67.48" width="19.12" height="2.12"/><rect class="cls-4" x="63.8" y="71.72" width="8.5" height="2.12"/><rect class="cls-4" x="42.55" y="71.72" width="19.12" height="2.12"/></g></g></svg>