<svg xmlns="http://www.w3.org/2000/svg" viewBox="0 0 23.41 22.37"><defs><style>.cls-1{fill:#fff;}</style></defs><title>icon-starWhite</title><g id="Layer_2" data-name="Layer 2"><g id="Layer_1-2" data-name="Layer 1"><g id="star"><path class="cls-1" d="M23.36,8.47a1,1,0,0,0-.9-.71l-6.77-.49L12.64.6a1,1,0,0,0-.93-.6,1,1,0,0,0-.94.6l-3,6.67L1,7.76a1,1,0,0,0-.9.71,1,1,0,0,0,.31,1.1L6,14.34,4.12,21.06a1,1,0,0,0,.37,1.11,1.06,1.06,0,0,0,1.18,0l6-3.91,6,3.91a1,1,0,0,0,.56.17,1,1,0,0,0,.61-.2,1,1,0,0,0,.38-1.11L17.4,14.35,23,9.58A1,1,0,0,0,23.36,8.47ZM15.57,13.2a1,1,0,0,0-.33,1.06L16.57,19l-4.3-2.79a1,1,0,0,0-.56-.17,1,1,0,0,0-.57.17L6.85,19l1.33-4.71a1,1,0,0,0-.33-1.07L3.63,9.63l4.85-.35a1.05,1.05,0,0,0,.87-.6l2.36-5.17,2.36,5.17a1,1,0,0,0,.86.6l4.86.35Z"/></g></g></g></svg>