<svg xmlns="http://www.w3.org/2000/svg" viewBox="0 0 34.49 34.49"><defs><style>.cls-1{fill:#fff;fill-rule:evenodd;}</style></defs><title>icon-offsite</title><g id="Layer_2" data-name="Layer 2"><g id="Layer_1-2" data-name="Layer 1"><path class="cls-1" d="M28.36,3.45l-12.6,12.6a1.9,1.9,0,0,0,2.69,2.68L31,6.14v4.21a1.73,1.73,0,0,0,3.45,0V1.72A1.68,1.68,0,0,0,34,.51,1.68,1.68,0,0,0,32.77,0H24.14a1.73,1.73,0,0,0,0,3.45Zm6.13,17.24v9.5a4.08,4.08,0,0,1-3.82,4.3H3.82A4.08,4.08,0,0,1,0,30.19V4.3A4.08,4.08,0,0,1,3.82,0h10a1.73,1.73,0,0,1,0,3.45H4.43a1.07,1.07,0,0,0-1,1.15V29.89a1.09,1.09,0,0,0,1,1.15H30.06a1.07,1.07,0,0,0,1-1.15v-9.2a1.73,1.73,0,0,1,3.45,0Z"/></g></g></svg>