<svg xmlns="http://www.w3.org/2000/svg" viewBox="0 0 103.28 103.28"><defs><style>.cls-1{fill:#fff;stroke:#ccc;stroke-miterlimit:10;}.cls-2{fill:#004b8d;}.cls-3{fill:#a6ce39;}</style></defs><title>icon-gas</title><g id="Layer_2" data-name="Layer 2"><g id="Layer_1-2" data-name="Layer 1"><circle class="cls-1" cx="51.64" cy="51.64" r="51.14"/><path class="cls-2" d="M74.58,21.62H45.67A2.35,2.35,0,0,0,43.32,24V77.22a2.35,2.35,0,0,0,2.35,2.35H74.58a2.35,2.35,0,0,0,2.35-2.35V24A2.35,2.35,0,0,0,74.58,21.62ZM72,44.07a2.15,2.15,0,0,1-2.12,2.18H50.41a2.15,2.15,0,0,1-2.12-2.18V28.81a2.15,2.15,0,0,1,2.12-2.18H69.85A2.15,2.15,0,0,1,72,28.81Z"/><path class="cls-2" d="M44,64.42c0,.12,0,.24,0,.36a9.14,9.14,0,0,1-18.27,0,8.57,8.57,0,0,1,1.69-5.1c2.23-3,4.73-5.8,6.61-9.08a29.44,29.44,0,0,0,2.68-6.52c0-.06.79-1.46.67-1.48l-2.5-.5A20.84,20.84,0,0,1,34,45.17a31.47,31.47,0,0,1-5.53,9.5c-1.58,1.93-3.42,3.69-4.38,6a10.72,10.72,0,0,0-.79,4.07,11.56,11.56,0,0,0,23.08.57Z"/><path class="cls-2" d="M80.16,80.76a1.92,1.92,0,0,1-1.88,2H42a1.92,1.92,0,0,1-1.88-2h0a1.92,1.92,0,0,1,1.88-2h36.3a1.92,1.92,0,0,1,1.88,2Z"/><path class="cls-3" d="M40.33,40l-.62,2.34a1,1,0,0,1-1.88-.5l.62-2.33a1,1,0,0,1,1.88.49Zm0-13L36,35a17.86,17.86,0,0,0-2,8.4c.1.75,6,1.44,6.47,1.24s1.84-3.59,1.4-5.43-3.63-4-3.63-4l3.62-7.5Z"/></g></g></svg>