<svg xmlns="http://www.w3.org/2000/svg" viewBox="0 0 103.28 103.28"><defs><style>.cls-1{fill:#fff;stroke:#ccc;stroke-miterlimit:10;}.cls-2{fill:#004b8d;}.cls-3{fill:#a6ce39;}</style></defs><title>icon-email</title><g id="Layer_2" data-name="Layer 2"><g id="Layer_1-2" data-name="Layer 1"><circle class="cls-1" cx="51.64" cy="51.64" r="51.14"/><path class="cls-2" d="M62,55.69c-1,3,.17,4.67,2.14,4.67,4.18,0,7.71-5.82,7.71-12.47,0-12.38-9.93-18-19.2-18-11.89,0-21.32,9.27-21.32,23,0,14.84,9.43,22.88,22.23,22.88A25.3,25.3,0,0,0,69.33,70.7h9.35c-4.59,6.64-12.87,11.89-25,11.89-17.14,0-30.1-11.4-30.1-29.61,0-17.14,13-29.69,29.2-29.69,13.37,0,26.82,8.53,26.82,24.52,0,10.75-7.06,19.61-15.42,19.61-4.35,0-7.22-2-8.45-5.17"/><path class="cls-3" d="M64.17,67.42c-4.35,0-7.22-2-8.45-5.17a11.23,11.23,0,0,1-9.11,5.33c-7,0-10.9-6.73-8.2-16.08,2.3-7.87,8.37-13,13.86-13a6.21,6.21,0,0,1,6.07,3.94l.82-2.63H67L62,55.69c-1,3,.17,4.67,2.14,4.67M54.9,52.9c1.56-4.92.74-7.47-2-7.47-2.38,0-4.84,2.63-6.4,7.47-1.39,4.43-.57,7.3,1.89,7.3S53.42,57.49,54.9,52.9Z"/></g></g></svg>