<svg xmlns="http://www.w3.org/2000/svg" viewBox="0 0 103.28 103.28"><defs><style>.cls-1{fill:#fff;stroke:#ccc;stroke-miterlimit:10;}.cls-2{fill:#a6ce39;}.cls-3{fill:#2e99cf;}.cls-4{fill:#004b8d;}</style></defs><title>icon-mag-glass</title><g id="Layer_2" data-name="Layer 2"><g id="Layer_1-2" data-name="Layer 1"><circle class="cls-1" cx="51.64" cy="51.64" r="51.14"/><polygon class="cls-2" points="61.73 58.11 57.85 61.99 61.73 65.64 65.49 61.99 61.73 58.11"/><polygon class="cls-3" points="61.02 67.76 66.78 61.99 81.94 77.04 78.53 81.74 75.24 81.74 61.02 67.76"/><path class="cls-4" d="M81.66,73.71,68.56,60.29a1.81,1.81,0,0,0-2.51-.06l-.26.24L63.22,57.7a24.12,24.12,0,0,0,4.42-13.93A24.4,24.4,0,1,0,57.57,63.44l2.31,2.48-.15.14a1.8,1.8,0,0,0-.07,2.56L72.92,82.19a5.36,5.36,0,0,0,3.85,1.62h0a5.38,5.38,0,0,0,3.76-1.52l1-1a5.36,5.36,0,0,0,.1-7.58Zm-38.42-9.2A20.74,20.74,0,1,1,64.05,43.77,20.8,20.8,0,0,1,43.24,64.51Zm19.27-1-2.2-2.37c.21-.2.41-.41.62-.63l2.23,2.41ZM79.05,78.73l-1,1a1.83,1.83,0,0,1-1.25.5h0a1.78,1.78,0,0,1-1.29-.54l-12-12.25L67.21,64,79.09,76.2a1.84,1.84,0,0,1,.51,1.27A1.77,1.77,0,0,1,79.05,78.73Z"/><path class="cls-2" d="M34.63,54.88A14,14,0,0,1,32,34.55a1.79,1.79,0,0,0-2.77-2.27,17.62,17.62,0,0,0,3.26,25.49,1.8,1.8,0,0,0,2.51-.4A1.78,1.78,0,0,0,34.63,54.88Z"/><path class="cls-2" d="M37.05,27a17.8,17.8,0,0,0-3,1.32,1.79,1.79,0,0,0,1.74,3.13,14.54,14.54,0,0,1,2.43-1.06A1.79,1.79,0,1,0,37.05,27Z"/></g></g></svg>