<?xml version="1.0" encoding="utf-8"?>
<!-- Generator: Adobe Illustrator 25.2.0, SVG Export Plug-In . SVG Version: 6.00 Build 0)  -->
<svg version="1.1" id="Layer_1" xmlns="http://www.w3.org/2000/svg" xmlns:xlink="http://www.w3.org/1999/xlink" x="0px" y="0px"
	 viewBox="0 0 39.3 39.8" style="enable-background:new 0 0 39.3 39.8;" xml:space="preserve">
<style type="text/css">
	.st0{fill:#004B8D;}
</style>
<g id="Layer_2_1_">
	<g id="Layer_2-2">
		<path class="st0" d="M34.1,3.3h-3.4V1c-0.1-0.5-0.7-0.9-1.2-0.8c-0.4,0.1-0.7,0.4-0.8,0.8v2.3H24V1c0-0.6-0.4-1-1-1s-1,0.4-1,1
			v2.3h-4.8V1c-0.1-0.5-0.7-0.9-1.2-0.8c-0.4,0.1-0.7,0.4-0.8,0.8v2.3h-4.8V1c-0.1-0.5-0.7-0.9-1.2-0.8C9,0.3,8.7,0.6,8.6,1v2.3H0
			v36.5h39.3V3.3H34.1z M37.3,37.9H2V5.3h6.6v2.1C8.5,7.9,8.8,8.4,9.3,8.5c0.5,0.1,1.1-0.2,1.2-0.8c0-0.1,0-0.3,0-0.4V5.3h4.8v2.1
			c-0.1,0.5,0.2,1.1,0.8,1.2c0.5,0.1,1.1-0.2,1.2-0.8c0-0.1,0-0.3,0-0.4V5.3H22v2.1c-0.1,0.5,0.2,1.1,0.8,1.2
			c0.5,0.1,1.1-0.2,1.2-0.8c0-0.1,0-0.3,0-0.4V5.3h4.8v2.1c-0.1,0.5,0.2,1.1,0.8,1.2c0.5,0.1,1.1-0.2,1.2-0.8c0-0.1,0-0.3,0-0.4V5.3
			h6.6L37.3,37.9z"/>
		<rect x="8.4" y="21.5" class="st0" width="2.4" height="2.4"/>
		<rect x="8.4" y="28.1" class="st0" width="2.4" height="2.4"/>
		<rect x="15.1" y="28.1" class="st0" width="2.4" height="2.4"/>
		<rect x="21.8" y="28.1" class="st0" width="2.4" height="2.4"/>
		<rect x="8.3" y="14.8" class="st0" width="2.4" height="2.4"/>
		<rect x="15" y="21.5" class="st0" width="2.4" height="2.4"/>
		<rect x="21.7" y="21.5" class="st0" width="2.4" height="2.4"/>
		<rect x="28.4" y="21.5" class="st0" width="2.4" height="2.4"/>
		<rect x="14.9" y="14.8" class="st0" width="2.4" height="2.4"/>
		<rect x="21.6" y="14.8" class="st0" width="2.4" height="2.4"/>
		<rect x="28.3" y="14.8" class="st0" width="2.4" height="2.4"/>
	</g>
</g>
</svg>
