<svg xmlns="http://www.w3.org/2000/svg" viewBox="0 0 103.28 103.28"><defs><style>.cls-1{fill:#fff;stroke:#ccc;stroke-miterlimit:10;}.cls-2{fill:#004b8d;}.cls-3{fill:#a6ce39;}</style></defs><title>icon-contact</title><g id="Layer_2" data-name="Layer 2"><g id="Layer_1-2" data-name="Layer 1"><circle class="cls-1" cx="51.64" cy="51.64" r="51.14"/><path class="cls-2" d="M19,43l4.61-2.15,6.55,12.8-4.42,2.17c-.87,2,3.5,10.2,5.35,10.33.15-.09,4.33-2.15,4.33-2.15L42.07,76.9l-4.62,2.26C24.7,85,6.48,49.56,19,43Zm3.13,2.06-1.66.82C11.88,50.4,27.23,80.27,36.1,76.21l1.58-.76L34,68.34l-1.66.81C27.2,71.66,18.94,55.83,24.14,53l1.63-.81Z"/><g id="mail_open" data-name="mail open"><path class="cls-2" d="M88.49,49.59a1.28,1.28,0,0,0-.49-1l-4.73-3.79v-3A1.29,1.29,0,0,0,82,40.53H77.84L67.25,31.89a1.28,1.28,0,0,0-1.61,0L55,40.53h-4a1.28,1.28,0,0,0-1.28,1.29v3L45.14,48.6a1.32,1.32,0,0,0-.47,1V75.31s0,.07,0,.1a1.15,1.15,0,0,0,.26.71,1.23,1.23,0,0,0,1,.47,1.14,1.14,0,0,0,.41-.07H86.7a2,2,0,0,0,.41.09,1.34,1.34,0,0,0,1-.47,1.19,1.19,0,0,0,.26-.71.61.61,0,0,0,0-.11l.09-25.71ZM59.15,62.9,47.28,72.62v-20ZM52.41,43.14H80.66V53.42a1.79,1.79,0,0,0,0,.24L66.53,65.93,52.38,53.65a1.81,1.81,0,0,0,0-.23V43.14Zm8.53,21.65a1.1,1.1,0,0,0,.14-.18l0,0,4.6,4a1.31,1.31,0,0,0,1.69,0l4.6-4,0,0a2.2,2.2,0,0,0,.14.18L83.42,74H49.68ZM74,62.9,85.88,52.61v20ZM85.22,49.73l-2,1.7V48.14ZM66.56,34.54l7.36,6H59.19ZM49.89,48.14v3.29l-2-1.7Z"/></g><path class="cls-3" d="M49.89,51.43l-.09-9.61a1.28,1.28,0,0,1,1.28-1.29H82a1.24,1.24,0,0,1,1.29,1.29v9.61l-2.59,2.23,0-10.52H52.41l0,10.51Z"/><path class="cls-2" d="M39.62,35.49c-.34,1,.06,1.62.74,1.62,1.45,0,2.67-2,2.67-4.32,0-4.28-3.43-6.21-6.64-6.21-4.11,0-7.37,3.21-7.37,8,0,5.13,3.26,7.91,7.68,7.91a8.75,8.75,0,0,0,5.45-1.76h3.23c-1.59,2.3-4.45,4.11-8.65,4.11-5.93,0-10.41-3.94-10.41-10.24a10,10,0,0,1,10.1-10.26c4.62,0,9.28,2.95,9.28,8.48,0,3.71-2.44,6.78-5.34,6.78a2.88,2.88,0,0,1-2.92-1.79"/><path class="cls-3" d="M40.36,39.55a2.88,2.88,0,0,1-2.92-1.79,3.86,3.86,0,0,1-3.15,1.84c-2.44,0-3.77-2.32-2.83-5.56.79-2.72,2.89-4.51,4.79-4.51a2.15,2.15,0,0,1,2.1,1.36l.28-.9h2.7l-1.71,5.5c-.34,1,.06,1.62.74,1.62m-3.2-2.58c.54-1.71.25-2.59-.68-2.59s-1.68.91-2.22,2.59-.19,2.52.66,2.52S36.65,36.11,37.16,34.53Z"/></g></g></svg>