<svg xmlns="http://www.w3.org/2000/svg" viewBox="0 0 103.28 103.28"><defs><style>.cls-1{fill:#fff;stroke:#ccc;stroke-miterlimit:10;}.cls-2{fill:#a6ce39;}.cls-3{fill:#2e99cf;}.cls-4{fill:#004b8d;}</style></defs><title>icon-washBrush</title><g id="Layer_2" data-name="Layer 2"><g id="Layer_1-2" data-name="Layer 1"><circle class="cls-1" cx="51.64" cy="51.64" r="51.14"/><path class="cls-2" d="M66.74,39.51a2.48,2.48,0,0,0,5,0c0-2.3-2.48-4.22-2.48-4.22S66.74,37.21,66.74,39.51Z"/><path class="cls-2" d="M55.35,39.51a2.48,2.48,0,0,0,5,0c0-2.3-2.48-4.22-2.48-4.22S55.35,37.21,55.35,39.51Z"/><path class="cls-2" d="M44,39.51a2.48,2.48,0,0,0,5,0c0-2.3-2.48-4.22-2.48-4.22S44,37.21,44,39.51Z"/><path class="cls-2" d="M32.57,39.51a2.48,2.48,0,0,0,5,0c0-2.3-2.48-4.22-2.48-4.22S32.57,37.21,32.57,39.51Z"/><path class="cls-3" d="M71.84,51.88c0-.94-1.53-2-3-2a2.14,2.14,0,0,0-2.19,1.49l-2.83-4.58c-.9-1.46-3.23-2.12-11.71-2.12s-10.8.66-11.7,2.12l-2.84,4.58a2.13,2.13,0,0,0-2.19-1.49c-1.45,0-3,1-3,2s1.53,1.47,3,1.47h.36c-.84.74-1.67,1.43-1.67,1.43A3.79,3.79,0,0,0,33,57.22v6.23a1.86,1.86,0,0,0,.91,1.46v3.3a1,1,0,0,0,1,1h4.56a1,1,0,0,0,1-1V66.87a85.27,85.27,0,0,0,11.57.66,85.07,85.07,0,0,0,11.57-.66v1.34a1,1,0,0,0,1,1H69.3a1,1,0,0,0,1-1v-3.3a1.83,1.83,0,0,0,.91-1.46V57.22a3.79,3.79,0,0,0-1.07-2.45s-.83-.69-1.67-1.43h.36C70.31,53.35,71.84,52.82,71.84,51.88ZM41.36,47.41c.59-1,2.65-1.59,10.77-1.59s10.19.63,10.78,1.59l2.7,4.84S62.12,53,52.13,53s-13.47-.73-13.47-.73ZM37.75,59.84a2.18,2.18,0,0,1,0-4.35c1.16,0,5,2.23,5,3.43S38.91,59.84,37.75,59.84ZM58.47,65H45.79c-1.32,0-2.39-1.63-2.39-3.64H60.87C60.87,63.35,59.8,65,58.47,65Zm10.15-7.31a2.14,2.14,0,0,1-2.11,2.17c-1.16,0-5,.28-5-.92s3.79-3.43,5-3.43A2.14,2.14,0,0,1,68.62,57.67Z"/><polygon class="cls-4" points="15.84 61.8 15.25 67.4 20.2 67.4 20.2 70.53 23.69 70.53 23.69 67.4 28.64 67.4 28.05 61.8 23.69 61.8 23.69 59.24 28.64 59.24 28.05 53.65 23.69 53.65 23.69 51.08 28.64 51.08 28.05 45.49 23.69 45.49 23.69 42.92 28.64 42.92 28.05 37.33 23.69 37.33 23.69 33.89 80.57 33.89 80.57 37.33 76.22 37.33 75.62 42.92 80.57 42.92 80.57 45.49 76.22 45.49 75.62 51.08 80.57 51.08 80.57 53.65 76.22 53.65 75.62 59.24 80.57 59.24 80.57 61.8 76.22 61.8 75.62 67.4 80.57 67.4 80.57 70.53 84.07 70.53 84.07 67.4 89.02 67.4 88.42 61.8 84.07 61.8 84.07 59.24 89.02 59.24 88.42 53.65 84.07 53.65 84.07 51.08 89.02 51.08 88.42 45.49 84.07 45.49 84.07 42.92 89.02 42.92 88.42 37.33 84.07 37.33 84.07 33.89 86.56 33.89 86.56 29.93 17.7 29.93 17.7 33.89 20.2 33.89 20.2 37.33 15.84 37.33 15.25 42.92 20.2 42.92 20.2 45.49 15.84 45.49 15.25 51.08 20.2 51.08 20.2 53.65 15.84 53.65 15.25 59.24 20.2 59.24 20.2 61.8 15.84 61.8"/></g></g></svg>