<?xml version="1.0" encoding="utf-8"?>
<!-- Generator: Adobe Illustrator 25.2.0, SVG Export Plug-In . SVG Version: 6.00 Build 0)  -->
<svg version="1.1" id="Layer_1" xmlns="http://www.w3.org/2000/svg" xmlns:xlink="http://www.w3.org/1999/xlink" x="0px" y="0px"
	 viewBox="0 0 62.4 62.4" style="enable-background:new 0 0 62.4 62.4;" xml:space="preserve">
<style type="text/css">
	.st0{fill:#004B8D;}
</style>
<path class="st0" d="M48.8,16.2c2.1-1.1,3.1-2.6,3.5-3.5c1.3-2.8,0.4-6.1-2.1-8.2c-1.4-1.1-3-1.7-4.8-1.7c0,0,0,0-0.1,0
	c-2,0-4,0.8-6,2.2c-2.8,2.1-5.3,5.9-7.6,9.3c-0.2,0.4-0.5,0.7-0.7,1.1c-0.2-0.4-0.5-0.7-0.7-1.1C28.1,11,25.6,7.1,22.8,5
	C18.4,1.7,14.3,2.6,12,4.5c-2.5,2.1-3.4,5.4-2.1,8.2c0.4,1,1.4,2.4,3.5,3.5H3.9v14h2.6v29.2h48.9V30.2h3.1v-14H48.8z M35.6,57.5
	h-9.2V18h9.2V57.5z M33.3,15.3c2.1-3.2,4.5-6.9,7.1-8.8c4.5-3.4,7.7-1.3,8.5-0.6c1.9,1.5,2.5,4,1.6,6c-0.8,1.7-2.6,3-5.2,3.6
	c-3.1,0.8-7.2,0.8-12.1,0C33.3,15.5,33.3,15.4,33.3,15.3z M11.5,11.9c-0.9-2-0.3-4.4,1.6-6c0.5-0.4,1.8-1.3,3.7-1.3
	c1.4,0,3,0.5,4.9,1.9c2.6,1.9,5,5.6,7.1,8.8c0,0.1,0.1,0.1,0.1,0.2c-4.9,0.8-9,0.8-12.1,0C14.1,14.8,12.3,13.6,11.5,11.9z M5.8,28.3
	V18h18.7v10.3H8.3H7.4H5.8z M8.3,30.2h16.2v27.3H8.3V30.2z M37.4,57.5V30.2h16.1v27.3H37.4z M56.6,28.3h-2.1h-1H37.4V18h19.2
	C56.6,18,56.6,28.3,56.6,28.3z"/>
</svg>
