<svg xmlns="http://www.w3.org/2000/svg" viewBox="0 0 103.28 103.28"><defs><style>.cls-1{fill:#fff;stroke:#ccc;stroke-miterlimit:10;}.cls-2{fill:#004b8d;}.cls-3{fill:#2e99cf;}.cls-4{fill:#a6ce39;}</style></defs><title>icon-signDoc</title><g id="Layer_2" data-name="Layer 2"><g id="Layer_1-2" data-name="Layer 1"><circle class="cls-1" cx="51.64" cy="51.64" r="51.14"/><path class="cls-2" d="M43.52,33.15H31.46a.67.67,0,0,0-.66.66v.95a.66.66,0,0,0,.66.66H43.52a.65.65,0,0,0,.66-.66v-.95A.66.66,0,0,0,43.52,33.15Zm6.2,5.6a.66.66,0,0,0-.66-.67H31.71a.67.67,0,0,0-.67.67.66.66,0,0,0,.67.66H49.06A.65.65,0,0,0,49.72,38.75Zm-18,5.72a.66.66,0,0,0-.67.66.67.67,0,0,0,.67.67H45.07a.67.67,0,0,0,.67-.67.66.66,0,0,0-.67-.66Zm-.91,8.71a.67.67,0,0,0,.66.66H43.52a.66.66,0,0,0,.66-.66v-1a.65.65,0,0,0-.66-.66H31.46a.66.66,0,0,0-.66.66Zm9.62-30H76V51.64l3.33-3.33V22.2a2.34,2.34,0,0,0-.68-1.65A2.38,2.38,0,0,0,77,19.87H39.42a2.38,2.38,0,0,0-1.65.68,2.34,2.34,0,0,0-.68,1.65v3.45h3.33Zm7.31,18.74a.66.66,0,0,0-.66-.66H31.71a.66.66,0,0,0-.67.66.67.67,0,0,0,.67.67H47.07A.67.67,0,0,0,47.73,41.94ZM27.85,78V30.3h40V63.47l3.32-3.33v-.91a2.59,2.59,0,0,1,0-2.66V29.31A2.32,2.32,0,0,0,68.87,27h-42a2.31,2.31,0,0,0-1.64.68,2.34,2.34,0,0,0-.68,1.65V79a2.32,2.32,0,0,0,2.32,2.33h27.3L55.61,78Zm39.72,3.08-.57.25h1.88a2.37,2.37,0,0,0,1.64-.68A2.34,2.34,0,0,0,71.2,79V76.33L67,80.54ZM77,71.8a2.32,2.32,0,0,0,2.33-2.33V68.2l-3.61,3.6ZM61.55,56.5H31.71a.67.67,0,1,0,0,1.33H61.55a.67.67,0,0,0,0-1.33Zm.66,5.12a.66.66,0,0,0-.66-.66H31.71a.66.66,0,0,0-.67.66.67.67,0,0,0,.67.67H61.55A.67.67,0,0,0,62.21,61.62Zm-2.46,4.46a.67.67,0,0,0-.66-.67H31.71a.67.67,0,1,0,0,1.33H59.09A.67.67,0,0,0,59.75,66.08Zm-28,3.79a.66.66,0,1,0,0,1.32H54.17a.66.66,0,0,0,0-1.32Z"/><path class="cls-3" d="M59.71,42.06a4.48,4.48,0,0,1-1.28,1,3.59,3.59,0,0,1-1.68.43,3.55,3.55,0,0,1-1.67-.43,4.22,4.22,0,0,1-1.28-1,8.15,8.15,0,0,0-4.08,7H63.78A8.12,8.12,0,0,0,59.71,42.06Z"/><path class="cls-3" d="M56.75,42.2c1.59,0,2.88-1.6,2.88-3.58S58.34,35,56.75,35s-2.87,1.6-2.87,3.58S55.17,42.2,56.75,42.2Z"/><polygon class="cls-4" points="55.16 84.02 64.39 79.96 59.21 74.79 55.16 84.02"/><path class="cls-4" d="M82.12,48.05,73.23,57a.62.62,0,0,0,.88.88l8.41-8.41,1,1L59.9,74l5.32,5.31,26-26-5.32-5.31L84.37,49.5l-1-1,3.36-3.37,1,1-.68.68,5.32,5.31,2.41-2.41c.49-.49.65-1.12.36-1.4L90.87,44c-.29-.29-.91-.13-1.4.36l-.85.85-1.4-1.41a.64.64,0,0,0-.89,0l-4.2,4.21h0"/></g></g></svg>