<svg xmlns="http://www.w3.org/2000/svg" width="35" height="34.92" viewBox="0 0 35 34.92"><title>Tag</title><path d="M34.8.52a1.16,1.16,0,0,0-1-.52l-.24,0a1.3,1.3,0,0,0-.68.4L29.54,3.75,27.38,5.87l0,0-.17.2a1.09,1.09,0,0,0-.11,1.21A1.13,1.13,0,0,0,28.13,8h0A1.23,1.23,0,0,0,29,7.53C30.25,6.35,31.47,5.14,32.65,4l1.94-1.92a1.44,1.44,0,0,0,.19-.22A1.14,1.14,0,0,0,34.8.52Z" fill="#2f96d0"/><path d="M33.9,6.83a1.72,1.72,0,0,0-.48-.8L33,5.63l-.18-.19-.33-.32L30.09,7.53a2.61,2.61,0,0,1-2.65,2.57h0a2.63,2.63,0,0,1,0-5.26L28.94,3.3l.16-.17.71-.71,0,0-.28-.27-.59-.6A1.79,1.79,0,0,0,28,1L27.53.89A19.84,19.84,0,0,0,24.4.62h-.78c-.85,0-1.68,0-2.49.05-.57,0-1.13.1-1.67.17L19.08.9a2.53,2.53,0,0,0-1.56.79l-9,9c-.87.86-1.73,1.73-2.59,2.59L4.52,14.7.79,18.43a2.61,2.61,0,0,0,0,3.72l.17.16.05.05L12.67,34l0,0,.18.17a2.5,2.5,0,0,0,1.72.67,2.62,2.62,0,0,0,.55-.05,2.69,2.69,0,0,0,1.42-.81L33.34,17.31A2.21,2.21,0,0,0,34,16.18l0-.09a2,2,0,0,1,0-.24,21.45,21.45,0,0,0,.27-3.12,32.86,32.86,0,0,0-.14-4.34A9,9,0,0,0,33.9,6.83Z" fill="#2f96d0"/></svg>