<svg xmlns="http://www.w3.org/2000/svg" viewBox="0 0 103.28 103.28"><defs><style>.cls-1{fill:#fff;stroke:#ccc;stroke-miterlimit:10;}.cls-2{fill:#a6ce39;}.cls-3{fill:#2e99cf;}.cls-4{fill:#004b8d;}</style></defs><title>Asset 4</title><g id="Layer_2" data-name="Layer 2"><g id="Layer_1-2" data-name="Layer 1"><circle class="cls-1" cx="51.64" cy="51.64" r="51.14"/><rect id="Rectangle_116" data-name="Rectangle 116" class="cls-2" x="30.67" y="44.82" width="8.29" height="27.62"/><circle class="cls-3" cx="34.81" cy="68.86" r="1.38"/><path class="cls-4" d="M80.39,54.49a6.12,6.12,0,0,0-1.13-3.35,6.17,6.17,0,0,0,2.51-4.94A6.24,6.24,0,0,0,76.24,40v0H63.53a12.15,12.15,0,0,0,1-4.83V28.25a6.21,6.21,0,1,0-12.42,0v4.14A8.24,8.24,0,0,1,51,35.05a34.51,34.51,0,0,1-3.09,4.31,45.07,45.07,0,0,1-6.19,6.24V43.44a1.38,1.38,0,0,0-1.38-1.38H29.16a1.38,1.38,0,0,0-1.25,1.38V73.82a1.38,1.38,0,0,0,1.38,1.39H40.34a1.38,1.38,0,0,0,1.38-1.39v-1.1a9.54,9.54,0,0,1,2.5,1.77c1.31,1.18,2.67,2.79,4.86,2.79H70.72a6.23,6.23,0,0,0,6.21-6.22,6.16,6.16,0,0,0-.88-3,6.18,6.18,0,0,0,3-5.24,6.09,6.09,0,0,0-1.13-3.35A6.18,6.18,0,0,0,80.39,54.49ZM39,72.44H30.67V44.82H39Zm37.78-23a1.44,1.44,0,0,0-.6.43,1.38,1.38,0,0,0,.21,1.94,3.44,3.44,0,0,1,1.27,2.7,3.38,3.38,0,0,1-2.26,3.21A1.39,1.39,0,0,0,75,60.08a3.44,3.44,0,0,1,1.27,2.7,3.37,3.37,0,0,1-2.61,3.32,1.38,1.38,0,0,0-.6,2.37,3.46,3.46,0,0,1,1.14,2.59v.08a3.42,3.42,0,0,1-3.45,3.38H49.08c-.56,0-1.63-.84-3-2.08a10,10,0,0,0-4.36-2.61V49a42.44,42.44,0,0,0,8.33-7.9,36.37,36.37,0,0,0,3.32-4.68,8.2,8.2,0,0,0,1.47-4V28.25a3.45,3.45,0,0,1,6.9,0v6.91a8.1,8.1,0,0,1-1.66,5.22,1.38,1.38,0,0,0,1,2.37h14.5a3.44,3.44,0,0,1,1.19,6.67Z"/></g></g></svg>