<?xml version="1.0" encoding="utf-8"?>
<!-- Generator: Adobe Illustrator 25.2.0, SVG Export Plug-In . SVG Version: 6.00 Build 0)  -->
<svg version="1.1" id="Layer_1" xmlns="http://www.w3.org/2000/svg" xmlns:xlink="http://www.w3.org/1999/xlink" x="0px" y="0px"
	 viewBox="0 0 62.4 53.9" style="enable-background:new 0 0 62.4 53.9;" xml:space="preserve">
<style type="text/css">
	.st0{fill:#FFFFFF;}
	.st1{fill:#004B8D;}
</style>
<g>
	<g>
		<g>
			<path class="st0" d="M57.6,27.3c0.9,3.5-1.2,7-4.7,7.9l-37.2,9.5c-3.5,0.9-7-1.2-7.9-4.7L2.6,19.4c-0.9-3.5,1.2-7,4.7-7.9L44.4,2
				c3.5-0.9,7,1.2,7.9,4.7L57.6,27.3z"/>
		</g>
		<path class="st1" d="M13.3,45.8c-1.1,0-2.1-0.3-3-0.8c-1.4-0.8-2.3-2.1-2.7-3.6L1.7,18.5c-0.8-3.2,1.1-6.4,4.3-7.2L45.4,1.1
			c3.2-0.8,6.4,1.1,7.2,4.3l5.9,22.9c0.4,1.5,0.2,3.1-0.6,4.5c-0.8,1.4-2.1,2.3-3.6,2.7L14.8,45.6C14.3,45.7,13.8,45.8,13.3,45.8z
			 M46.9,2.2c-0.4,0-0.8,0-1.2,0.1L6.3,12.4c-2.5,0.6-4,3.2-3.4,5.7L8.7,41c0.3,1.2,1.1,2.2,2.2,2.9c1.1,0.6,2.4,0.8,3.6,0.5
			l39.4-10.1c2.5-0.6,4-3.2,3.4-5.7L51.4,5.7C50.9,3.6,49,2.2,46.9,2.2z"/>
	</g>
	<polygon class="st1" points="2.5,19.2 52,5.3 53.8,12.7 4.3,26.1 	"/>
	<g>
		<g>
			<path class="st0" d="M60.8,45.7c0,3.6-2.9,6.5-6.5,6.5H15.9c-3.6,0-6.5-2.9-6.5-6.5V24.4c0-3.6,2.9-6.5,6.5-6.5h38.4
				c3.6,0,6.5,2.9,6.5,6.5C60.8,24.4,60.8,45.7,60.8,45.7z"/>
		</g>
		<path class="st1" d="M55.5,52.8H14.7c-3.3,0-5.9-2.7-5.9-5.9V23.2c0-3.3,2.7-5.9,5.9-5.9h40.7c3.3,0,5.9,2.7,5.9,5.9v23.6
			C61.4,50.1,58.7,52.8,55.5,52.8z M14.7,18.5c-2.6,0-4.7,2.1-4.7,4.7v23.6c0,2.6,2.1,4.7,4.7,4.7h40.7c2.6,0,4.7-2.1,4.7-4.7V23.2
			c0-2.6-2.1-4.7-4.7-4.7H14.7z"/>
	</g>
	<g>
		<g>
			<rect x="47.1" y="33.1" class="st1" width="2.3" height="1.5"/>
			<path class="st1" d="M49.4,32.3v-1.5H49c-0.9,0-1.6,0.7-1.9,1.5H49.4z"/>
			<rect x="47.1" y="35.4" class="st1" width="2.3" height="1.5"/>
			<path class="st1" d="M47.1,37.7c0.2,0.9,1,1.5,1.8,1.5h0.4v-1.5H47.1z"/>
		</g>
		<g>
			<rect x="54" y="33.1" class="st1" width="2.3" height="1.5"/>
			<rect x="54" y="35.4" class="st1" width="2.3" height="1.5"/>
			<path class="st1" d="M54,37.7v1.5h0.4c0.9,0,1.6-0.6,1.8-1.5H54z"/>
			<path class="st1" d="M53.2,37.7V37v-1.5v-0.8v-1.5v-0.8H54h2.2c-0.2-0.9-1-1.5-1.9-1.5H50v8.5h3.1v-1.7H53.2z"/>
		</g>
	</g>
	<rect x="13.2" y="43.2" class="st1" width="0.8" height="2.1"/>
	<rect x="15.3" y="43.2" class="st1" width="1.8" height="2.1"/>
	<rect x="18.1" y="43.2" class="st1" width="1.8" height="2.1"/>
	<rect x="21" y="43.2" class="st1" width="0.8" height="2.1"/>
	<rect x="24.8" y="43.2" class="st1" width="0.8" height="2.1"/>
	<rect x="27.7" y="43.2" class="st1" width="0.8" height="2.1"/>
	<rect x="29.6" y="43.2" class="st1" width="1.6" height="2.1"/>
	<rect x="32.3" y="43.2" class="st1" width="1.8" height="2.1"/>
	<rect x="36.1" y="43.2" class="st1" width="0.8" height="2.1"/>
	<rect x="39" y="43.2" class="st1" width="0.8" height="2.1"/>
	<rect x="40.9" y="43.2" class="st1" width="1.7" height="2.1"/>
	<rect x="43.8" y="43.2" class="st1" width="1.7" height="2.1"/>
	<rect x="47.3" y="43.2" class="st1" width="2.1" height="2.1"/>
	<rect x="50.4" y="43.2" class="st1" width="1.6" height="2.1"/>
	<rect x="53.4" y="43.2" class="st1" width="0.8" height="2.1"/>
	<rect x="55.2" y="43.2" class="st1" width="1.6" height="2.1"/>
</g>
</svg>
