<svg xmlns="http://www.w3.org/2000/svg" viewBox="0 0 103.28 103.28"><defs><style>.cls-1{fill:#fff;stroke:#ccc;stroke-miterlimit:10;}.cls-2{fill:#a6ce39;}.cls-3{fill:#004b8d;}.cls-4{fill:#491c55;}</style></defs><title>icon-cloudy</title><g id="Layer_2" data-name="Layer 2"><g id="Layer_1-2" data-name="Layer 1"><circle class="cls-1" cx="51.64" cy="51.64" r="51.14"/><path class="cls-2" d="M41,52.67a19,19,0,0,1,6.34-8.1A11.51,11.51,0,1,0,29.2,57.37,13.1,13.1,0,0,1,41,52.67Z"/><path class="cls-3" d="M77.72,52.57h0a13.26,13.26,0,0,0-1.67.11A18.9,18.9,0,0,0,51.44,42.28l-.07,0a16.13,16.13,0,0,0-2-3.47l4-4a2.29,2.29,0,1,0-3.24-3.24l-4,4.05a15.91,15.91,0,0,0-7.33-3V26.82a2.3,2.3,0,1,0-4.59,0h0v5.76a16,16,0,0,0-7.32,3l-4-4a2.29,2.29,0,1,0-3.24,3.24l4,4a16,16,0,0,0-3.06,7.34H14.85a2.29,2.29,0,1,0,0,4.58h5.74a16,16,0,0,0,3,7.35l-4,4a2.29,2.29,0,0,0,3.19,3.3l.05-.06,4-4,.08.06A13.1,13.1,0,0,0,39.34,78.76l38.38,0a13.12,13.12,0,0,0,0-26.23ZM43.85,39.63a11.47,11.47,0,0,1,3.49,4.94A19,19,0,0,0,41,52.67a13.1,13.1,0,0,0-11.8,4.7h0A11.5,11.5,0,1,1,43.85,39.63ZM80.18,73.84a8.13,8.13,0,0,1-2.45.37h0l-38.39,0a8.51,8.51,0,1,1,2.5-16.65A2.29,2.29,0,0,0,44.7,56l0,0a14.34,14.34,0,0,1,27.62,0,2.3,2.3,0,0,0,2.83,1.59l.06,0a8.53,8.53,0,0,1,5,16.32Z"/><polygon class="cls-4" points="29.2 57.37 29.2 57.37 29.2 57.37 29.2 57.37"/></g></g></svg>