<svg xmlns="http://www.w3.org/2000/svg" viewBox="0 0 103.28 103.28"><defs><style>.cls-1{fill:#fff;stroke:#ccc;stroke-miterlimit:10;}.cls-2{fill:#004b8d;}.cls-3{fill:#a6ce39;}</style></defs><title>icon-snail-mail</title><g id="Layer_2" data-name="Layer 2"><g id="Layer_1-2" data-name="Layer 1"><circle class="cls-1" cx="51.64" cy="51.64" r="51.14"/><g id="mail_open" data-name="mail open"><path class="cls-2" d="M80.22,42a1.73,1.73,0,0,0-.67-1.36L73,35.43V31.3a1.77,1.77,0,0,0-1.77-1.77H65.58L51,17.65a1.72,1.72,0,0,0-2.22,0L34.21,29.53H28.76A1.77,1.77,0,0,0,27,31.3v4.13l-6.4,5.21A1.76,1.76,0,0,0,19.93,42V77.38c0,.05,0,.1,0,.15a1.67,1.67,0,0,0,.36,1,1.72,1.72,0,0,0,1.37.64,1.84,1.84,0,0,0,.56-.1h55.5a2.9,2.9,0,0,0,.57.12,1.8,1.8,0,0,0,1.38-.65,1.75,1.75,0,0,0,.36-1,.8.8,0,0,0,0-.15L80.22,42ZM39.86,60.31,23.52,73.68V46.15ZM30.58,33.12H69.45V47.27a1.29,1.29,0,0,0,0,.33L50,64.48,30.54,47.58c0-.11,0-.21,0-.32V33.12ZM42.32,62.91a1.16,1.16,0,0,0,.2-.25l0,0,6.33,5.49A1.77,1.77,0,0,0,50,68.6a1.79,1.79,0,0,0,1.17-.42l6.32-5.49,0,0a1.57,1.57,0,0,0,.2.25L73.24,75.58H26.82Zm18-2.6L76.63,46.15V73.67ZM75.73,42.19,73,44.53V40ZM50.05,21.29l10.13,8.24H39.91ZM27.11,40v4.53l-2.68-2.34Z"/></g><path class="cls-3" d="M27.11,44.53,27,31.3a1.75,1.75,0,0,1,1.77-1.77H71.27A1.7,1.7,0,0,1,73,31.3V44.53L69.49,47.6l0-14.48H30.58l0,14.46Z"/></g></g></svg>