<svg xmlns="http://www.w3.org/2000/svg" viewBox="0 0 103.28 103.28"><defs><style>.cls-1{fill:#fff;stroke:#ccc;stroke-miterlimit:10;}.cls-2{fill:#a6ce39;}.cls-3{fill:#004b8d;}</style></defs><title>icon-people-group</title><g id="Layer_2" data-name="Layer 2"><g id="Layer_1-2" data-name="Layer 1"><circle class="cls-1" cx="51.64" cy="51.64" r="51.14"/><path class="cls-2" d="M42,57.68a8.25,8.25,0,0,0-6.53,8v2.6a.84.84,0,0,0,.9.79H66.7a.17.17,0,0,0,.1,0,.83.83,0,0,0,.79-.89v-2.5a8.23,8.23,0,0,0-6.52-8A15.13,15.13,0,0,1,42,57.68Z"/><path class="cls-3" d="M51.47,51.25h0A11.62,11.62,0,1,0,39.9,39.63,11.62,11.62,0,0,0,51.51,51.25Zm0-17.87h.07a6.22,6.22,0,1,1-.07,0Z"/><path class="cls-3" d="M60.45,52.23a2.47,2.47,0,0,0-2.06.71,9.9,9.9,0,0,1-13.75,0,2.86,2.86,0,0,0-2.06-.8A13.7,13.7,0,0,0,30.07,65.72v2.5a6.22,6.22,0,0,0,6.18,6.25.11.11,0,0,0,.08,0H66.7A6.22,6.22,0,0,0,73,68.3V65.72A13.61,13.61,0,0,0,60.45,52.23ZM66.8,69.11a.17.17,0,0,1-.1,0H36.33a.84.84,0,0,1-.9-.79v-2.6a8.25,8.25,0,0,1,6.53-8,15.13,15.13,0,0,0,19.11,0,8.23,8.23,0,0,1,6.52,8v2.5A.83.83,0,0,1,66.8,69.11Z"/><path class="cls-3" d="M74.74,53a9.8,9.8,0,0,0,9.83-9.77v0A9.83,9.83,0,1,0,74.74,53Zm-4.47-9.82a4.47,4.47,0,1,1,4.47,4.46,4.42,4.42,0,0,1-4.47-4.37Z"/><path class="cls-3" d="M82,53.93H81a2.73,2.73,0,0,0-2,.8,5.5,5.5,0,0,1-4.29,1.88,2.68,2.68,0,1,0,0,5.36,10.78,10.78,0,0,0,7.33-2.68,4.44,4.44,0,0,1,4.29,4.46v.9a.85.85,0,0,1-.8.89H77.42a2.68,2.68,0,1,0,0,5.36h8a6.23,6.23,0,0,0,6.26-6.18v-1A9.79,9.79,0,0,0,82,53.93Z"/><path class="cls-3" d="M28.23,53h.06a9.8,9.8,0,1,0-.06,0Zm0-14.29h.09a4.43,4.43,0,1,1-.09,0Z"/><path class="cls-3" d="M16.67,63.75A4.44,4.44,0,0,1,21,59.29,11,11,0,0,0,28.29,62a2.68,2.68,0,0,0,0-5.36A5.5,5.5,0,0,1,24,54.73a2.73,2.73,0,0,0-2-.8h-.89a9.8,9.8,0,0,0-9.83,9.77v1a6.22,6.22,0,0,0,6.18,6.25h8.12a2.63,2.63,0,0,0,2.68-2.58v-.1a2.64,2.64,0,0,0-2.59-2.68H17.57a.85.85,0,0,1-.9-.79v-1Z"/></g></g></svg>