<svg xmlns="http://www.w3.org/2000/svg" viewBox="0 0 27.72 27.7"><defs><style>.cls-1{fill:#004b8d;}</style></defs><title>icon-scope</title><g id="Layer_2" data-name="Layer 2"><g id="Layer_1-2" data-name="Layer 1"><g id="_1b9ROV" data-name="1b9ROV"><path class="cls-1" d="M14.91,25.61V27.7H12.84V25.58A11.94,11.94,0,0,1,2.16,14.9H0V12.81H2.14A11.93,11.93,0,0,1,12.79,2.13V0h2.09V2.14A11.82,11.82,0,0,1,25.55,12.79h2.17v2.09h-2.1C24.58,21,21,24.53,14.91,25.61ZM4.35,14.89c.21,4.62,4.64,8.43,8.49,8.45V21.41H15v2c5.2-.47,8.41-5.17,8.41-8.52H21.43V12.76h2c-.43-5.08-5-8.39-8.5-8.43v2H12.79v-2c-4.3.26-8.33,4.29-8.46,8.5h2v2.08Z"/></g></g></g></svg>