<?xml version="1.0" encoding="utf-8"?>
<!-- Generator: Adobe Illustrator 25.2.0, SVG Export Plug-In . SVG Version: 6.00 Build 0)  -->
<svg version="1.1" id="Layer_1" xmlns="http://www.w3.org/2000/svg" xmlns:xlink="http://www.w3.org/1999/xlink" x="0px" y="0px"
	 viewBox="0 0 46.7 53.9" style="enable-background:new 0 0 46.7 53.9;" xml:space="preserve">
<style type="text/css">
	.st0{fill:#004B8D;}
</style>
<g>
	<path class="st0" d="M45.8,26.5c-0.2,4.5-1.3,8-3.3,10.5c-2,2.6-4.6,3.9-8,3.9s-5.7-1.5-6.6-4.6c-1,1.6-2.1,2.7-3.4,3.5
		s-2.6,1.1-4,1.1c-2.6,0-4.6-1.1-5.9-3.2c-1.3-2.1-1.8-5.1-1.5-8.9c0.3-3,1-5.7,2.1-8.1s2.5-4.3,4.3-5.6c1.8-1.4,3.6-2,5.5-2
		c1.5,0,2.8,0.2,4,0.6c1.2,0.4,2.5,1.2,4,2.3l-1.4,15.3c-0.3,4.3,0.8,6.4,3.5,6.4c2.1,0,3.8-1,5.1-3.1s2-4.7,2.1-8.1
		c0.3-7.2-1-12.6-4-16.4s-7.6-5.6-13.7-5.6c-3.7,0-7,0.9-9.9,2.7s-5.1,4.5-6.8,7.9c-1.7,3.5-2.6,7.5-2.8,12
		C4.9,31.7,5.4,35.6,6.8,39c1.3,3.4,3.3,5.9,6.1,7.7c2.7,1.8,6,2.7,9.8,2.7c1.7,0,3.3-0.2,5-0.6c1.7-0.4,3.1-0.9,4.2-1.6l1,3.2
		c-1.1,0.7-2.7,1.3-4.5,1.8c-1.9,0.5-3.8,0.7-5.7,0.7c-4.6,0-8.6-1-11.9-3.1S5,44.7,3.4,40.9C1.6,37,0.9,32.4,1.1,27.2
		c0.2-5.1,1.4-9.6,3.4-13.7s4.8-7.2,8.3-9.4s7.4-3.3,11.8-3.3c4.6,0,8.5,1,11.8,3.1c3.3,2.1,5.7,5,7.3,8.9
		C45.3,16.8,46,21.3,45.8,26.5z M17.5,28.9c-0.3,2.6,0,4.6,0.7,6s1.9,2.1,3.5,2.1c1.1,0,2.2-0.5,3.2-1.4s1.9-2.3,2.5-4v-0.2
		l1.3-13.9c-1-0.5-2.1-0.8-3.3-0.8c-2.2,0-3.9,1.1-5.3,3.3C18.7,22.1,17.8,25.1,17.5,28.9z"/>
</g>
</svg>
