<svg xmlns="http://www.w3.org/2000/svg" viewBox="0 0 61.38 53.71"><defs><style>.cls-1{fill:none;}.cls-2{fill:#2e99cf;}</style></defs><g id="Layer_2" data-name="Layer 2"><g id="Layer_2-2" data-name="Layer 2"><g id="cart"><polygon class="cls-1" points="23.98 35.52 48.34 35.52 56.52 11.11 17.59 11.11 23.98 35.52"/><path class="cls-2" d="M61,8a2,2,0,0,0-1.65-.85H16.46L16.06,5C14.44.6,11.91,0,10.67,0H2A2,2,0,0,0,2,4h8.66c.28,0,1.11,0,1.68,2l8.18,32.07a2,2,0,0,0,1.93,1.47h27.3a2,2,0,0,0,1.89-1.32L61.27,9.79A2,2,0,0,0,61,8ZM48.34,35.51H24l-6.39-24.4H56.52Z"/><circle class="cls-2" cx="44.36" cy="48.65" r="5.06"/><circle class="cls-2" cx="26.15" cy="48.65" r="5.06"/></g></g></g></svg>