<svg xmlns="http://www.w3.org/2000/svg" viewBox="0 0 37.45 31.21"><defs><style>.cls-1{fill:#2e99cf;}</style></defs><title>icon-social-twitter</title><g id="Layer_2" data-name="Layer 2"><g id="Layer_1-2" data-name="Layer 1"><path id="Twitter" class="cls-1" d="M36.42.58a15.43,15.43,0,0,1-4.88,1.91A7.59,7.59,0,0,0,25.93,0a7.78,7.78,0,0,0-7.68,7.88,7.5,7.5,0,0,0,.2,1.79A21.63,21.63,0,0,1,2.61,1.44a8,8,0,0,0-1,4A7.9,7.9,0,0,0,5,12,7.67,7.67,0,0,1,1.5,11v.1A7.83,7.83,0,0,0,7.67,18.8a7.09,7.09,0,0,1-2,.28,7.67,7.67,0,0,1-1.45-.14,7.71,7.71,0,0,0,7.18,5.47,15.21,15.21,0,0,1-9.55,3.37A13.84,13.84,0,0,1,0,27.67a21.32,21.32,0,0,0,11.78,3.54c14.13,0,21.86-12,21.86-22.42,0-.34,0-.68,0-1a15.51,15.51,0,0,0,3.83-4.08A14.52,14.52,0,0,1,33,4.93,7.8,7.8,0,0,0,36.42.58Z"/></g></g></svg>