<?xml version="1.0" encoding="utf-8"?>
<!-- Generator: Adobe Illustrator 23.0.4, SVG Export Plug-In . SVG Version: 6.00 Build 0)  -->
<svg version="1.1" id="Layer_1" xmlns="http://www.w3.org/2000/svg" xmlns:xlink="http://www.w3.org/1999/xlink" x="0px" y="0px"
	 viewBox="0 0 46.9 21.8" style="enable-background:new 0 0 46.9 21.8;" xml:space="preserve">
<style type="text/css">
	.st0{fill:#FFFFFF;}
</style>
<title>icon-key</title>
<g>
	<g id="Layer_1-2">
		<path class="st0" d="M21.2,7.3c-2-5.7-8.2-8.7-13.9-6.6s-8.7,8.2-6.6,13.9s8.2,8.7,13.9,6.6c3.1-1.1,5.5-3.5,6.6-6.6h7.9v7.3h7.3
			v-7.3H40V7.3H21.2z M10.9,14.6c-2,0-3.6-1.6-3.6-3.6s1.6-3.6,3.6-3.6s3.6,1.6,3.6,3.6S12.9,14.6,10.9,14.6
			C10.9,14.6,10.9,14.6,10.9,14.6z"/>
		<polygon class="st0" points="40,14.5 40,21.8 46.9,21.8 46.9,7.4 40,7.3 34.9,7.3 		"/>
	</g>
</g>
</svg>
