<?xml version="1.0" encoding="utf-8"?>
<!-- Generator: Adobe Illustrator 23.0.4, SVG Export Plug-In . SVG Version: 6.00 Build 0)  -->
<svg version="1.1" id="Layer_1" xmlns="http://www.w3.org/2000/svg" xmlns:xlink="http://www.w3.org/1999/xlink" x="0px" y="0px"
	 viewBox="0 0 195.1 195.1" style="enable-background:new 0 0 195.1 195.1;" xml:space="preserve">
<style type="text/css">
	.st0{fill:#F4F4F4;}
	.st1{clip-path:url(#SVGID_2_);}
	.st2{fill:#F9BC56;}
	.st3{fill:none;stroke:#E6AE4D;stroke-width:4.62;}
	.st4{fill:#E5AE4C;}
	.st5{fill:none;stroke:#F7BA56;stroke-width:3.96;}
	.st6{fill:#F7BA56;}
	.st7{fill:none;stroke:#E5AE4C;stroke-width:4.45;}
	.st8{fill:none;stroke:#E5AE4C;stroke-width:3.47;}
	.st9{fill:#0E4F8B;}
	.st10{fill:none;stroke:#E5AE4C;stroke-width:3.64;}
	.st11{fill:none;stroke:#E5AE4C;stroke-width:3.74;}
	.st12{fill:none;stroke:#F7BA56;stroke-width:3.63;}
	.st13{fill:none;stroke:#F7BA56;stroke-width:3.29;}
	.st14{fill:none;stroke:#E5AE4C;stroke-width:3.7;}
	.st15{fill:none;stroke:#AF843A;stroke-width:1.5;}
	.st16{fill:none;stroke:#F7BA56;stroke-width:3.06;}
	.st17{fill:none;stroke:#E5AE4C;stroke-width:3.44;stroke-linecap:round;}
	.st18{fill:#E6AE4D;}
	.st19{fill:#FFFFFF;}
	.st20{fill:#2E99CF;}
	.st21{fill:#A6CE39;}
	.st22{fill:#004B8D;}
</style>
<g>
	<g id="Layer_1-2">
		<circle class="st0" cx="97.6" cy="97.6" r="97.6"/>
		<g>
			<defs>
				<circle id="SVGID_1_" cx="97.6" cy="97.6" r="97.6"/>
			</defs>
			<clipPath id="SVGID_2_">
				<use xlink:href="#SVGID_1_"  style="overflow:visible;"/>
			</clipPath>
			<g class="st1">
				<path class="st2" d="M111.6,124c6.6-1.9,24-33.4,24-33.4c-1.7-3.6-2.9-7.3-2.5-11.2c0.3-3.5,1.6-6.9,3.5-9.8
					c6.2-9.6,19.4-6.8,22.8,3.6c3.6,11-2.6,26.4-7.8,35.6c-5.4,9.6-16.4,26.7-26.8,60.4l-10.7-37.2L111.6,124z"/>
				<path class="st3" d="M111.6,124c6.6-1.9,24-33.4,24-33.4c-1.7-3.6-2.9-7.3-2.5-11.2c0.3-3.5,1.6-6.9,3.5-9.8
					c6.2-9.6,19.4-6.8,22.8,3.6c3.6,11-2.6,26.4-7.8,35.6c-5.4,9.6-16.4,26.7-26.8,60.4l-10.7-37.2L111.6,124z"/>
				<path class="st2" d="M141.4,89.5c0.6-2.6,0.4-5.3-0.7-7.8c-1.7-3.7-8.6-6.3-11.8-2.5c-4.8,5.9,2.5,11.6,4.7,16.7"/>
				<path class="st3" d="M141.4,89.5c0.6-2.6,0.4-5.3-0.7-7.8c-1.7-3.7-8.6-6.3-11.8-2.5c-4.8,5.9,2.5,11.6,4.7,16.7"/>
				<path class="st4" d="M119.3,284.3c-6.8,1-14.3-0.7-17.6-6.7c-6.3-10.2-3.2-22.2,1.2-32.9l-10,8.1c-3.5,11.5-5.1,25.7,6.4,33.4
					c5.9,4,13.2,2.7,19.6,0.7c3.4-1,10.7-4.1,12.4-8.3c-1.4,1.3-3,2.5-4.7,3.5C124.3,282.8,121.5,283.6,119.3,284.3"/>
				<path class="st5" d="M119.3,284.3c-6.8,1-14.3-0.7-17.6-6.7c-6.3-10.2-3.2-22.2,1.2-32.9l-10,8.1c-3.5,11.5-5.1,25.7,6.4,33.4
					c5.9,4,13.2,2.7,19.6,0.7c3.4-1,10.7-4.1,12.4-8.3c-1.4,1.3-3,2.5-4.7,3.5C124.3,282.8,121.5,283.6,119.3,284.3z"/>
				<path class="st6" d="M130.6,273.8c-1.8-2.5-5.4-3.4-7.9-4.9c-3.4-2.1-5.7-5.6-6.4-9.5c-2.3-10.1,0.7-20.6,4.9-29.7l-18.4,15
					c-4.3,10.7-7.5,22.7-1.2,32.9c3.3,6,10.8,7.7,17.6,6.7c2.2-0.7,5-1.5,7.3-2.2c1.7-1,3.3-2.1,4.7-3.5
					C132,277,131.7,275.2,130.6,273.8"/>
				<path class="st7" d="M130.6,273.8c-1.8-2.5-5.4-3.4-7.9-4.9c-3.4-2.1-5.7-5.6-6.4-9.5c-2.3-10.1,0.7-20.6,4.9-29.7l-18.4,15
					c-4.3,10.7-7.5,22.7-1.2,32.9c3.3,6,10.8,7.7,17.6,6.7c2.2-0.7,5-1.5,7.3-2.2c1.7-1,3.3-2.1,4.7-3.5
					C131.9,277,131.7,275.2,130.6,273.8z"/>
				<path class="st6" d="M81.7,57.9c-0.4-5.7,2.6-9.6,8.4-9.4c5.5,0.3,10.8,4.9,9.6,10.9c-0.7,3.3-3.6,5.2-6.2,7L81.7,57.9z"/>
				<path class="st8" d="M81.7,57.9c-0.4-5.7,2.6-9.6,8.4-9.4c5.5,0.3,10.8,4.9,9.6,10.9c-0.7,3.3-3.6,5.2-6.2,7L81.7,57.9z"/>
				<path class="st9" d="M88.8,58.9c-2.2-0.8-4.1-1.9-3.5-3.9c0,0.1,0,0,0,0c0.5-1.7,2.2-3,4.6-2.9c2.5-0.1,4.8,1.3,5.8,3.6
					c0.7,1.2,0.7,2.7-0.1,3.9c-0.3,0.4-0.6,0.8-1.1,1C92,61.6,90.5,59.5,88.8,58.9"/>
				<path class="st6" d="M52.8,66c-1.5-5.7-7.4-9.1-13.1-7.6c-0.8,0.2-1.5,0.5-2.2,0.9c-6.8,3.6-8.1,13.9-1.6,18.5
					c2.8,2,5.7,3.2,9.1,2.5L52.8,66z"/>
				<path class="st10" d="M52.8,66c-1.5-5.7-7.4-9.1-13.1-7.6c-0.8,0.2-1.5,0.5-2.2,0.9c-6.8,3.6-8.1,13.9-1.6,18.5
					c2.8,2,5.7,3.2,9.1,2.5L52.8,66z"/>
				<path class="st6" d="M74.7,285.5c5.8-17.1,2.8-34.5-0.7-51.7l-25.1-16.4c-0.5,2.1-0.8,4.2-1,6.4c-2.8,18.4,1,35.9-3.9,53.4
					c-1.9,8.5-7.9,16.7-7.3,25.5c1.2,10,11.9,12.1,20.9,9.8C66.3,307,71.5,295,74.7,285.5"/>
				<path class="st11" d="M74.7,285.5c5.8-17.1,2.8-34.5-0.7-51.7l-25.1-16.4c-0.5,2.1-0.8,4.2-1,6.4c-2.8,18.4,1,35.9-3.9,53.4
					c-1.9,8.5-7.9,16.7-7.3,25.5c1.2,10,11.9,12.1,20.9,9.8C66.3,307,71.5,295,74.7,285.5z"/>
				<path class="st4" d="M38.2,300.9c-0.6-8.9,5.5-17.2,7.4-25.8c4.9-17.7,1.1-35.4,3.9-54c0.2-2.2,0.5-4.3,1-6.5l-11.4-7.4
					c-2.2,10-3.7,19.9-3.1,30.2s3,20.3,3.7,30.6c0.5,7.6-0.4,14.6-4,21.3c-2.2,3.9-6.4,8.3-6,13.2c1,11.7,19.8,13.1,27.5,9.6
					c0.8-0.4,1.5-0.8,2.2-1.2C50.4,313.1,39.4,311,38.2,300.9"/>
				<path class="st12" d="M38.2,300.9c-0.6-8.9,5.5-17.2,7.4-25.8c4.9-17.7,1.1-35.4,3.9-54c0.2-2.2,0.5-4.3,1-6.5l-11.4-7.4
					c-2.2,10-3.7,19.9-3.1,30.2s3,20.3,3.7,30.6c0.5,7.6-0.4,14.6-4,21.3c-2.2,3.9-6.4,8.3-6,13.2c1,11.7,19.8,13.1,27.5,9.6
					c0.8-0.4,1.5-0.8,2.2-1.2C50.3,313.1,39.4,311,38.2,300.9z"/>
				<path class="st4" d="M76.3,262.7c-8.8-4.1-16.2-8.8-22.4-16.8c-24.4-32.2-5.7-68.5,2.8-102.1c4.8-19.7-8.7-36.7-7.7-56.5
					c0.7-13.7,8.8-23.4,19.5-29.2c-6.7,1.2-13.1,4.1-17.3,8.3c-10.5,10.4-13,19.2-7.2,36.2c6.2,18.2,11.7,26.8-2,59.4
					c-6,14.3-10.8,30.5-9.4,46.2c2.2,26.4,21.2,64,54.5,58.2c3.2-0.6,6.4-1.5,9.3-2.9c-1.5,0.2-3,0.3-4.4,0.4
					C86.7,265.2,81.2,264.8,76.3,262.7"/>
				<path class="st13" d="M76.3,262.7c-8.8-4.1-16.2-8.8-22.4-16.8c-24.4-32.2-5.7-68.5,2.8-102.1c4.8-19.7-8.7-36.7-7.7-56.5
					c0.7-13.7,8.8-23.4,19.5-29.2c-6.7,1.2-13.1,4.1-17.3,8.3c-10.5,10.4-13,19.2-7.2,36.2c6.2,18.2,11.7,26.8-2,59.4
					c-6,14.3-10.8,30.5-9.4,46.2c2.2,26.4,21.2,64,54.5,58.2c3.2-0.6,6.4-1.5,9.3-2.9c-1.5,0.2-3,0.3-4.4,0.4
					C86.7,265.2,81.2,264.8,76.3,262.7z"/>
				<path class="st6" d="M123.7,221.3c6.7-26.7,5.2-56.4-6.7-80.5c-13.7-27.7-12.7-36.6-13.1-44.3c-1-18.3-3.4-29-15.7-35.8
					c-5.7-3.2-12.2-4.6-20.5-2.5c-16.4,5.7-18.8,15.5-19.5,29.2c-1,19.9,12.5,36.9,7.7,56.5c-8.5,33.6-27.2,69.8-2.8,102.1
					c6.2,8.1,13.6,12.7,22.4,16.8c5,2.1,10.4,2.5,15.7,1.2c1.4-0.1,2.9-0.2,4.4-0.4C111.5,256.4,119.1,239.3,123.7,221.3"/>
				<path class="st14" d="M123.7,221.3c6.7-26.7,5.2-56.4-6.7-80.5c-13.7-27.7-12.7-36.6-13.1-44.3c-1-18.3-3.4-29-15.7-35.8
					c-5.7-3.2-12.2-4.6-20.5-2.5c-16.4,5.7-18.8,15.5-19.5,29.2c-1,19.9,12.5,36.9,7.7,56.5c-8.5,33.6-27.2,69.8-2.8,102.1
					c6.2,8.1,13.6,12.7,22.4,16.8c5,2.1,10.4,2.5,15.7,1.2c1.4-0.1,2.9-0.2,4.4-0.4C111.5,256.4,119.1,239.3,123.7,221.3z"/>
				<path class="st9" d="M84.6,72.4c-1.5-0.3-3-0.4-4.6-0.5c-1.6,0-2.2-2.7-0.3-3.6c1.9-0.5,4-0.2,5.8,0.6
					C87.3,70.3,86.1,72.8,84.6,72.4"/>
				<path class="st9" d="M79.7,84.8c-1.8,0.4-3.5,0.9-5.3,1.4c-1.7,0.6-3.4,1.3-5,2.1c-3.4,1.6-7.5-3.5-4.1-7.4
					c0.9-1,3.4-2.4,6.2-3.3s5.6-1.4,7-1.2C83.5,77.4,83.4,84,79.7,84.8"/>
				<path class="st9" d="M61.4,78.3c-1.2,1-2.3,2-3.3,3.2c-1,1.2-3.5,0-2.9-2.1c0.9-1.8,2.4-3.2,4.2-4
					C61.5,74.9,62.6,77.4,61.4,78.3"/>
				<path class="st9" d="M44.7,69.7c-1.7,1.6-2.3,4.8-5.8,4.9c-0.6-0.1-1.3-0.3-1.8-0.7c-1.5-1-2.3-2.7-2.1-4.5c0-3.2,1.9-6,4.9-7.1
					c2.8-1.3,5.4-0.6,6.8,1.1c0,0,0.1,0.1,0,0C48.5,65.4,46.8,67.7,44.7,69.7"/>
				<path class="st15" d="M60.5,92c9,8.6,26.5,3.1,26.4-10.1"/>
				<path class="st4" d="M50.7,125.3c1.8,10.1-12,20.7-20.9,32.5c-11.3,15-14.2,25.4-13.5,37.2c0.8,13.5,10.2,22.9,21.9,28.7
					c11.2,5.5,35.4,7,38-10.7c0.8-5.6-0.9-9.4-3.9-12c0.2,0.5,0.5,1,0.6,1.5c0.8,3.1,0.3,6.4-1.4,9.1c-1.6,2.8-4.1,4.7-6.6,6.5
					c-2.2,0.9-4.4,1.6-6.7,2c-3.4,0.5-6.9,0.3-10.2-0.6c-3.8-1.2-7.7-3-10.3-6.5c-14.6-19.1-4.2-45.1,10.3-61.4"/>
				<path class="st16" d="M50.7,125.3c1.8,10.1-12,20.7-20.9,32.5c-11.3,15-14.2,25.4-13.5,37.2c0.8,13.5,10.2,22.9,21.9,28.7
					c11.2,5.5,35.4,7,38-10.7c0.8-5.6-0.9-9.4-3.9-12c0.2,0.5,0.5,1,0.6,1.5c0.8,3.1,0.3,6.4-1.4,9.1c-1.6,2.8-4.1,4.7-6.6,6.5
					c-2.2,0.9-4.4,1.6-6.7,2c-3.4,0.5-6.9,0.3-10.2-0.6c-3.8-1.2-7.7-3-10.3-6.5c-14.6-19.1-4.2-45.1,10.3-61.4"/>
				<path class="st6" d="M44.7,196.9c0.1-1.6,1.1-10,6.2-8.2c5.5,1.9,1.6,9.3,1.6,9.3c6.2-1.8,14.6-1.2,19.7,3.1
					c0.2,0.5,0.5,1,0.6,1.5c0.8,3.1,0.3,6.4-1.4,9.1c-1.6,2.8-4.1,4.6-6.6,6.5c-2.2,0.9-4.4,1.6-6.7,2c-3.4,0.5-6.9,0.3-10.2-0.6
					c-3.8-1.2-7.7-3-10.3-6.5c-14.6-19.1-4.2-45.1,10.3-61.4l2.9-16.5"/>
				<path class="st17" d="M44.7,196.9c0.1-1.6,1.1-10,6.2-8.2c5.5,1.9,1.6,9.3,1.6,9.3c6.2-1.8,14.6-1.2,19.7,3.1
					c0.2,0.5,0.5,1,0.6,1.5c0.8,3.1,0.3,6.4-1.4,9.1c-1.6,2.8-4.1,4.6-6.6,6.5c-2.2,0.9-4.4,1.6-6.7,2c-3.4,0.5-6.9,0.3-10.2-0.6
					c-3.8-1.2-7.7-3-10.3-6.5c-14.6-19.1-4.2-45.1,10.3-61.4l2.9-16.5"/>
				<path class="st18" d="M135,95.1c0,0-18.4,39.3-16.5,44.8s-6.1-14.9-6.1-14.9L135,95.1z"/>
			</g>
		</g>
		<polygon class="st19" points="111,54.4 113.4,30.4 113.4,28.1 134.5,27 144.4,27 148.8,28.1 150.1,32.5 150.1,46.8 150.1,52.3 
			151.3,54.4 146.6,59.1 133.1,58.1 129.4,59.4 117.3,64.5 114.8,59 113.4,56.4 		"/>
		<polygon class="st19" points="138.7,22.6 141.1,11.7 141.1,8.6 148.8,8.6 167.6,8.6 176.2,8.6 177.9,16.5 177.9,35.5 176.4,38.2 
			174.2,39.9 173.9,47.7 160.3,39.4 153.9,39 150.1,37.2 149.8,28.1 139.9,27.1 		"/>
		<path class="st20" d="M146.6,25.7h-31c-2.6,0-4.6,2.1-4.6,4.6v24c0,2.3,1.6,4.2,3.8,4.6v7.4c0,0.8,0.6,1.4,1.4,1.4c0,0,0,0,0,0
			c0.3,0,0.5-0.1,0.8-0.2l12.4-8.2c0.4-0.2,0.8-0.4,1.2-0.4h16c2.6,0,4.7-2.1,4.7-4.7v-24C151.3,27.8,149.2,25.8,146.6,25.7
			C146.6,25.7,146.6,25.7,146.6,25.7z M148.8,54.4c0,1.2-1,2.2-2.2,2.2h-16c-0.9,0-1.8,0.3-2.6,0.8l-10.8,7.1v-6.2
			c0-0.9-0.7-1.6-1.7-1.6c-1.2,0-2.2-1-2.2-2.2c0,0,0,0,0,0v-24c0-1.2,1-2.2,2.2-2.2l0,0h31c1.2,0,2.2,1,2.2,2.2L148.8,54.4z"/>
		<path class="st20" d="M174.4,7.1h-31c-2.6,0-4.7,2.1-4.7,4.6c0,0,0,0,0,0v10.9c0.1,0.7,0.7,1.2,1.3,1.1c0.6-0.1,1.1-0.5,1.1-1.1
			V11.7c0-1.2,1-2.2,2.2-2.2c0,0,0,0,0,0h31c1.2,0,2.2,1,2.2,2.2c0,0,0,0,0,0v24c0,1.2-1,2.2-2.2,2.2c0,0,0,0,0,0
			c-0.9,0-1.6,0.7-1.6,1.7v6.2L162,38.7c-0.8-0.5-1.7-0.8-2.6-0.8h-5.2c-0.7-0.1-1.3,0.4-1.3,1.1c-0.1,0.7,0.4,1.3,1.1,1.3
			c0.1,0,0.1,0,0.2,0h5.2c0.4,0,0.9,0.1,1.2,0.4l12.3,8.2c0.2,0.1,0.5,0.2,0.8,0.2c0.8,0,1.4-0.6,1.4-1.4v-7.4
			c2.2-0.4,3.8-2.3,3.9-4.6v-24C179,9.2,176.9,7.1,174.4,7.1C174.4,7.1,174.4,7.1,174.4,7.1z"/>
		<path class="st21" d="M130.8,32.5c-3.5,0-5.6,2.2-5.6,6v6.3c0,3.7,2.1,6,5.6,6c0.7,0,1.5-0.1,2.1-0.3l1.6,1.9l1.8-1.6l-1.4-1.7
			c1-1.2,1.5-2.8,1.4-4.3v-6.4C136.3,34.8,134.2,32.5,130.8,32.5z M133.1,44.8c0,1.9-0.8,3-2.4,3s-2.4-1.1-2.4-3v-6.3
			c0-1.9,0.8-3,2.4-3s2.4,1.1,2.4,3V44.8z"/>
		<path class="st22" d="M156.8,28.2h4.1l0.7,3.2h3.2l-4.3-17.6h-3.3l-4.3,17.6h3.2L156.8,28.2z M158.1,22c0.2-1.2,0.5-3.1,0.7-4.3
			h0.1c0.2,1.2,0.4,3.1,0.7,4.3l0.7,3.3h-2.9L158.1,22z"/>
	</g>
</g>
</svg>
