<svg xmlns="http://www.w3.org/2000/svg" viewBox="0 0 103.28 103.28"><defs><style>.cls-1{fill:#fff;stroke:#ccc;stroke-miterlimit:10;}.cls-2{fill:#fdbe57;}.cls-3{fill:#004b8d;}</style></defs><title>Asset 4</title><g id="Layer_2" data-name="Layer 2"><g id="Layer_1-2" data-name="Layer 1"><circle class="cls-1" cx="51.64" cy="51.64" r="51.14"/><path class="cls-2" d="M70.55,34c-2.37-1.32-4.44-3-3.32-5.21,0,.08,0,0,0,0,.87-1.93,3.1-3.09,5.93-2.58a7.23,7.23,0,0,1,6.12,5.4,4.48,4.48,0,0,1-.86,4.6,3.5,3.5,0,0,1-1.47,1C73.78,37.8,72.44,35,70.55,34ZM63.74,46.62a27.9,27.9,0,0,0-3.8-1.77c-1.38-.46-1.15-3,.83-3.15a6.31,6.31,0,0,1,2.61.73A6.43,6.43,0,0,1,65.62,44c1.14,1.63-.65,3.42-1.88,2.66ZM56.12,57.49a43.87,43.87,0,0,0-5-.33,37.8,37.8,0,0,0-5,.33c-3.43.4-5.47-5.27-1.38-7.64,1.06-.62,3.64-1,6.37-1.05s5.3.43,6.37,1.05c4.09,2.37,2,8-1.38,7.64ZM41.89,44.85a27.9,27.9,0,0,0-3.8,1.77c-1.24.76-3-1-1.88-2.66a6.43,6.43,0,0,1,2.24-1.53,6.31,6.31,0,0,1,2.61-.73c2,.18,2.21,2.69.83,3.15ZM32.71,33.92c-1.9,1.06-3.24,3.85-6.43,3.21a3.43,3.43,0,0,1-1.47-1A4.47,4.47,0,0,1,24,31.5a7.23,7.23,0,0,1,6.12-5.4c2.84-.52,5.06.65,5.94,2.57,0,0,.05.13,0,0,1.13,2.17-1,3.89-3.31,5.21ZM84,30.57c-1.21-5.19-4.77-8.2-10.15-8.84-6-.72-9.15,2.93-12,6.59-3.08-1.5-17.13-1.63-20.42,0-2.84-3.75-5.61-7.13-12.44-6.63a11.2,11.2,0,0,0-9.7,8.51,9.6,9.6,0,0,0,5.9,11.47C22.59,45.38,19.73,56.35,20.33,63H82.85c.64-8-2.07-17.15-5-21.35,4.4-1.72,7.37-6.08,6.2-11.1Z"/><path class="cls-3" d="M70.55,34c-2.37-1.32-4.44-3-3.32-5.21,0,.08,0,0,0,0,.87-1.93,3.1-3.09,5.93-2.58a7.23,7.23,0,0,1,6.12,5.4,4.48,4.48,0,0,1-.86,4.6,3.5,3.5,0,0,1-1.47,1C73.78,37.8,72.44,35,70.55,34ZM63.74,46.62a27.9,27.9,0,0,0-3.8-1.77c-1.38-.46-1.15-3,.83-3.15a6.31,6.31,0,0,1,2.61.73A6.43,6.43,0,0,1,65.62,44c1.14,1.63-.65,3.42-1.88,2.66ZM56.12,57.49a43.87,43.87,0,0,0-5-.33,37.8,37.8,0,0,0-5,.33c-3.43.4-5.47-5.27-1.38-7.64,1.06-.62,3.64-1,6.37-1.05s5.3.43,6.37,1.05c4.09,2.37,2,8-1.38,7.64ZM41.89,44.85a27.9,27.9,0,0,0-3.8,1.77c-1.24.76-3-1-1.88-2.66a6.43,6.43,0,0,1,2.24-1.53,6.31,6.31,0,0,1,2.61-.73c2,.18,2.21,2.69.83,3.15ZM32.71,33.92c-1.9,1.06-3.24,3.85-6.43,3.21a3.43,3.43,0,0,1-1.47-1A4.47,4.47,0,0,1,24,31.5a7.23,7.23,0,0,1,6.12-5.4c2.84-.52,5.06.65,5.94,2.57,0,0,.05.13,0,0,1.13,2.17-1,3.89-3.31,5.21Z"/><path class="cls-3" d="M27.47,78.4V68.17h2.85a4.5,4.5,0,0,1,2.26.58,4,4,0,0,1,1.55,1.64,5.18,5.18,0,0,1,.56,2.43v.94a5.18,5.18,0,0,1-.55,2.43,3.92,3.92,0,0,1-1.57,1.63,4.61,4.61,0,0,1-2.31.58Zm.86-9.49v8.76h1.94a3.33,3.33,0,0,0,2.59-1.08,4.12,4.12,0,0,0,1-2.89v-.9a4.06,4.06,0,0,0-1-2.83,3.27,3.27,0,0,0-2.53-1.06Z"/><path class="cls-3" d="M38.07,68.61a.52.52,0,0,1,.16-.4.6.6,0,0,1,.84,0,.52.52,0,0,1,.16.4.51.51,0,0,1-.16.39.6.6,0,0,1-.84,0A.51.51,0,0,1,38.07,68.61Zm1,9.79h-.84V70.8h.84Z"/><path class="cls-3" d="M42.44,74.53a4.64,4.64,0,0,1,.79-2.83,2.58,2.58,0,0,1,2.15-1,2.64,2.64,0,0,1,2.36,1.24l0-1.1h.79v7.44a3.28,3.28,0,0,1-.82,2.33,3,3,0,0,1-2.23.85A3.45,3.45,0,0,1,44,81.07a3,3,0,0,1-1.14-.95l.47-.5a2.66,2.66,0,0,0,2.12,1.09,2.15,2.15,0,0,0,1.65-.62,2.51,2.51,0,0,0,.61-1.72v-1a2.73,2.73,0,0,1-2.36,1.13,2.54,2.54,0,0,1-2.12-1.06,4.6,4.6,0,0,1-.8-2.84Zm.85.15A4,4,0,0,0,43.88,77a1.88,1.88,0,0,0,1.64.84,2.26,2.26,0,0,0,2.2-1.39V72.88a2.47,2.47,0,0,0-.85-1.11,2.35,2.35,0,0,0-1.34-.38,1.93,1.93,0,0,0-1.65.83A4.27,4.27,0,0,0,43.29,74.68Z"/><path class="cls-3" d="M52.15,68.61a.55.55,0,0,1,.15-.4.6.6,0,0,1,.84,0,.52.52,0,0,1,.16.4.51.51,0,0,1-.16.39.57.57,0,0,1-1-.39Zm1,9.79h-.84V70.8h.84Z"/><path class="cls-3" d="M58.16,68.86V70.8h1.57v.69H58.16v5.06a1.62,1.62,0,0,0,.23,1,.89.89,0,0,0,.76.31,6.71,6.71,0,0,0,.68-.07l0,.68a2.71,2.71,0,0,1-.9.12A1.49,1.49,0,0,1,57.71,78a2.34,2.34,0,0,1-.39-1.47V71.49h-1.4V70.8h1.4V68.86Z"/><path class="cls-3" d="M67.71,78.4a4,4,0,0,1-.17-1.06,2.86,2.86,0,0,1-1.12.88,3.45,3.45,0,0,1-1.45.32,2.57,2.57,0,0,1-1.77-.61,2,2,0,0,1-.68-1.55,2,2,0,0,1,.92-1.75A4.44,4.44,0,0,1,66,74h1.53v-.86A1.64,1.64,0,0,0,67,71.84a2,2,0,0,0-1.46-.47,2.28,2.28,0,0,0-1.45.45,1.32,1.32,0,0,0-.58,1.08H62.7a2,2,0,0,1,.84-1.57,3.25,3.25,0,0,1,2.07-.66,2.94,2.94,0,0,1,2,.64,2.25,2.25,0,0,1,.75,1.77v3.59a4.52,4.52,0,0,0,.23,1.65v.09Zm-2.64-.61a2.81,2.81,0,0,0,1.5-.4,2.48,2.48,0,0,0,1-1.09V74.63H66a3.73,3.73,0,0,0-2,.46,1.41,1.41,0,0,0-.24,2.28A1.81,1.81,0,0,0,65.07,77.79Z"/><path class="cls-3" d="M73,78.4h-.84V67.61H73Z"/></g></g></svg>