<svg xmlns="http://www.w3.org/2000/svg" viewBox="0 0 45.8 44.31"><defs><style>.cls-1{fill:#fff;}</style></defs><title>img-speechBubbleWhite</title><g id="Layer_2" data-name="Layer 2"><g id="Layer_1-2" data-name="Layer 1"><path class="cls-1" d="M0,7a1.4,1.4,0,0,1,1.4-1.4H40a1.41,1.41,0,0,1,0,2.81H1.4A1.41,1.41,0,0,1,0,7Zm8.24,8.63a1.41,1.41,0,0,1,1.41-1.4H32A1.4,1.4,0,1,1,32,17H9.65a1.4,1.4,0,0,1-1.41-1.4Zm0,7.19a1.41,1.41,0,0,1,1.41-1.4H32a1.4,1.4,0,1,1,0,2.8H9.65a1.41,1.41,0,0,1-1.41-1.4ZM7.39,1.53V1.27A1.28,1.28,0,0,1,8.67,0H44.53A1.27,1.27,0,0,1,45.8,1.27v.26A1.27,1.27,0,0,1,44.53,2.8H8.67A1.26,1.26,0,0,1,7.39,1.53ZM44.4,0a1.4,1.4,0,0,1,1.4,1.4V30.64a1.4,1.4,0,1,1-2.8,0V1.4A1.4,1.4,0,0,1,44.4,0ZM22.05,32.92a1.4,1.4,0,0,1,1.4-1.4H40a1.4,1.4,0,0,1,0,2.8H23.45a1.4,1.4,0,0,1-1.4-1.4Zm-22,0a1.4,1.4,0,0,1,1.4-1.4H13.84a1.4,1.4,0,0,1,0,2.8H1.4A1.4,1.4,0,0,1,0,32.92Zm12.46,11a1.41,1.41,0,0,1,0-2l10-10a1.4,1.4,0,0,1,2,2l-10,10A1.41,1.41,0,0,1,12.46,43.9ZM1.4,34.32A1.4,1.4,0,0,1,0,32.92V7A1.4,1.4,0,1,1,2.8,7v26A1.4,1.4,0,0,1,1.4,34.32Zm38.55,0a1.41,1.41,0,0,1-1.41-1.4V7a1.41,1.41,0,0,1,2.81,0v26A1.4,1.4,0,0,1,40,34.32Z"/></g></g></svg>