<svg xmlns="http://www.w3.org/2000/svg" viewBox="0 0 275.92 55.92"><defs><style>.cls-1{fill:#00aeef;}.cls-2{fill:#fff;}.cls-3{fill:#9fc537;}.cls-4{fill:#96c121;}</style></defs><title>img-washGreen</title><g id="Layer_2" data-name="Layer 2"><g id="Layer_1-2" data-name="Layer 1"><path class="cls-1" d="M26.9,39.88s-16,1.37-24.4-12.09C-4.61,16.32,5,7.59,12.26,8.94c2.49.46,9.59,3,9.19,15S26.9,39.88,26.9,39.88Z"/><path class="cls-2" d="M32.75,44.34s-7.78-5.11-15.42-1c-7,3.76-4.79,10.77-.66,12.21,1.41.49,6.55,1.56,9.07-4.91S32.75,44.34,32.75,44.34Z"/><path class="cls-2" d="M43.26,47.18s-20.41-2.42-19-25.73C25.61-.15,50.84-3.79,59.8,3.27c6.79,5.35,7.47,14.31,2.47,19.22S52,26.08,45.68,25.29c-7.57-1-12.89,5.09-11.6,11.53C35.31,43,38.52,44.68,43.26,47.18Z"/><path class="cls-3" d="M66.54,23.56s-2.49,7.55-15.65,4.93C38.46,26,35.26,34.19,36.69,36.9a25.65,25.65,0,0,0,27.17-5.83S57.5,42.85,37.21,39.4c2.48,5.67,11.2,10.79,20.64,5.16C71,36.71,66.54,23.56,66.54,23.56Z"/><path class="cls-2" d="M105.61,32.53a10.91,10.91,0,0,1-1.39,6c-1.38,2.23-3.84,3.3-7.15,3.3a8.58,8.58,0,0,1-5.18-1.47,7.05,7.05,0,0,1-1.74-1.75,8,8,0,0,1-1.74,1.79,8.69,8.69,0,0,1-5.19,1.43c-3.3,0-5.76-1.07-7.19-3.26a11.4,11.4,0,0,1-1.38-6v-11a.66.66,0,0,1,.67-.67h4.55a.66.66,0,0,1,.67.67V32.35a6.5,6.5,0,0,0,.58,3,2.74,2.74,0,0,0,2.64,1.39,3,3,0,0,0,3-1.92,6.32,6.32,0,0,0,.45-2.59V21.58a.64.64,0,0,1,.67-.67h4.56a.66.66,0,0,1,.67.67V32.22a6.5,6.5,0,0,0,.44,2.59,3,3,0,0,0,3,1.92,2.69,2.69,0,0,0,2.59-1.39,5.91,5.91,0,0,0,.59-3V21.58a.66.66,0,0,1,.67-.67h4.51a.66.66,0,0,1,.67.67Z"/><path class="cls-2" d="M109.9,26.68c-.45.26-.76.26-1-.23l-1.29-2.81a.61.61,0,0,1,.27-.9,16.15,16.15,0,0,1,8.31-2.23c2,0,4.73.4,6.48,2.32a7.62,7.62,0,0,1,1.78,5.45V40.71a.69.69,0,0,1-.67.67h-3.93a.7.7,0,0,1-.71-.67v-.36H119a9.24,9.24,0,0,1-5.45,1.47,7.13,7.13,0,0,1-4.74-1.65,5.84,5.84,0,0,1-2-4.65c0-2.63,1.56-4.2,3.71-5.18a26.37,26.37,0,0,1,8.09-1.61v-.45a3.51,3.51,0,0,0-.63-2.32,3.1,3.1,0,0,0-2.46-.89A11.67,11.67,0,0,0,109.9,26.68Zm8.67,9.91V32.71c-2.69.09-6.17.44-6.17,2.63,0,1.43,1.38,2.1,3,2.1A5.87,5.87,0,0,0,118.57,36.59Z"/><path class="cls-2" d="M135.9,35.61c0-1-.8-1.34-1.92-1.83-1.3-.58-2.86-1.07-4.29-1.79a5.47,5.47,0,0,1-3.31-5.36c0-3.75,2.91-6.12,8.18-6.12a13.6,13.6,0,0,1,6.93,1.56.59.59,0,0,1,.26.9l-1.6,3.3c-.18.36-.45.41-.81.23a9.35,9.35,0,0,0-4.6-1.3c-1.21,0-2.1.4-2.1,1.43s.94,1.34,2,1.74c1.42.58,2.72,1,4.15,1.7a5.38,5.38,0,0,1,3.35,5.18c0,3.76-3.26,6.57-8.44,6.57a13.8,13.8,0,0,1-7.37-1.7c-.41-.22-.5-.53-.32-.84l1.66-3.45a.57.57,0,0,1,.84-.26,9.5,9.5,0,0,0,5.05,1.65C135,37.22,135.9,36.68,135.9,35.61Z"/><path class="cls-2" d="M156.86,26.59a3.39,3.39,0,0,0-2.69-1c-3.48,0-4.78,3.26-4.78,6.21v8.94a.69.69,0,0,1-.67.67h-4.55a.66.66,0,0,1-.67-.67V11.62a.65.65,0,0,1,.67-.67h4.55a.68.68,0,0,1,.67.67V23a8.2,8.2,0,0,1,6.08-2.46,8.7,8.7,0,0,1,6,2c1.43,1.3,2.36,3.4,2.36,6.43V40.71a.66.66,0,0,1-.67.67h-4.6a.7.7,0,0,1-.67-.67V30.47A5.83,5.83,0,0,0,156.86,26.59Z"/><path class="cls-3" d="M181.12,46a4.83,4.83,0,0,0,1.16-3.44v-2a9.54,9.54,0,0,1-5,1.16,9.42,9.42,0,0,1-6.75-2.59,11.15,11.15,0,0,1-3-8,11.5,11.5,0,0,1,2.82-7.78,9.21,9.21,0,0,1,6.92-2.81,8.85,8.85,0,0,1,5,1.65h.14v-.58a.66.66,0,0,1,.67-.67h4.38a.66.66,0,0,1,.67.67V41.82c0,3.49-1,6.26-3,8-1.83,1.52-4.34,2.19-7.46,2.19a14.56,14.56,0,0,1-8-2.24.75.75,0,0,1-.31-.89l1.74-3.39a.66.66,0,0,1,1-.18,9.92,9.92,0,0,0,5.63,1.78A4.7,4.7,0,0,0,181.12,46Zm1.16-10.45V27.12a7.07,7.07,0,0,0-4.11-1.56A4.15,4.15,0,0,0,175,26.85a6.64,6.64,0,0,0-1.38,4.34,6.41,6.41,0,0,0,1.34,4.38A4.06,4.06,0,0,0,178,36.86,7.37,7.37,0,0,0,182.28,35.57Z"/><path class="cls-4" d="M196.53,31.32v9.39a.69.69,0,0,1-.67.67H191.3a.66.66,0,0,1-.67-.67V21.58a.64.64,0,0,1,.67-.67h4.38a.66.66,0,0,1,.67.67v1.21h.14a6.38,6.38,0,0,1,5-2.28,7.54,7.54,0,0,1,5,1.7.72.72,0,0,1,.23.94l-1.66,3.53a.7.7,0,0,1-1,.17,6.71,6.71,0,0,0-3.62-1.16C197.38,25.69,196.53,28.51,196.53,31.32Z"/><path class="cls-3" d="M222,35.75c.49-.27.85-.18,1,.17l1.56,2.91a.74.74,0,0,1-.31.89,14.51,14.51,0,0,1-7.68,2.1,11.18,11.18,0,0,1-8.14-3,10.84,10.84,0,0,1-3-7.91,10.64,10.64,0,0,1,3-7.55A10.17,10.17,0,0,1,216,20.51c3.71,0,6.3,1.39,7.91,3.57,1.47,2,1.92,5.05,1.88,8.18a.64.64,0,0,1-.67.67H211.77a4.91,4.91,0,0,0,1.34,2.73,5.45,5.45,0,0,0,4,1.47A9.53,9.53,0,0,0,222,35.75Zm-2-6.71a4.3,4.3,0,0,0-1-2.68,4.13,4.13,0,0,0-3-1.2,4.31,4.31,0,0,0-3.22,1.2A5.06,5.06,0,0,0,211.72,29Z"/><path class="cls-3" d="M243.27,35.75c.49-.27.84-.18,1,.17l1.57,2.91a.74.74,0,0,1-.32.89,14.51,14.51,0,0,1-7.68,2.1,11.14,11.14,0,0,1-8.13-3,10.84,10.84,0,0,1-3-7.91,10.65,10.65,0,0,1,3-7.55,10.15,10.15,0,0,1,7.5-2.86c3.71,0,6.3,1.39,7.91,3.57,1.48,2,1.92,5.05,1.88,8.18a.64.64,0,0,1-.67.67H233a4.91,4.91,0,0,0,1.34,2.73,5.46,5.46,0,0,0,4,1.47A9.59,9.59,0,0,0,243.27,35.75Zm-2-6.71a4.35,4.35,0,0,0-1-2.68,4.16,4.16,0,0,0-3-1.2,4.31,4.31,0,0,0-3.22,1.2A5.14,5.14,0,0,0,232.94,29Z"/><path class="cls-3" d="M253.94,23a8.3,8.3,0,0,1,6.12-2.46,8.69,8.69,0,0,1,6,2c1.43,1.3,2.37,3.4,2.37,6.43V40.71a.66.66,0,0,1-.67.67h-4.6a.69.69,0,0,1-.67-.67V30.47a5.77,5.77,0,0,0-1-3.88,3.38,3.38,0,0,0-2.68-1c-3.49,0-4.78,3.26-4.78,6.21v8.94a.69.69,0,0,1-.67.67h-4.56a.66.66,0,0,1-.67-.67V21.58a.64.64,0,0,1,.67-.67h4.38a.66.66,0,0,1,.67.67V23Z"/><path class="cls-3" d="M275.92,38.72a2.54,2.54,0,1,1-2.51-2.47A2.49,2.49,0,0,1,275.92,38.72Zm-4.44,0a1.92,1.92,0,0,0,1.93,2,1.88,1.88,0,0,0,1.87-2,1.9,1.9,0,1,0-3.8,0ZM273,40h-.57V37.53a6.48,6.48,0,0,1,.95-.08,1.32,1.32,0,0,1,.84.2.6.6,0,0,1,.25.52.63.63,0,0,1-.51.59v0c.24.08.36.27.44.6a1.82,1.82,0,0,0,.18.6H274a1.91,1.91,0,0,1-.2-.6c0-.25-.19-.37-.51-.37H273Zm0-1.38h.28c.31,0,.57-.1.57-.36s-.17-.38-.53-.38a1.8,1.8,0,0,0-.32,0Z"/></g></g></svg>