<svg xmlns="http://www.w3.org/2000/svg" viewBox="0 0 68.14 43.18"><defs><style>.cls-1{fill:#fcae5d;}.cls-2{fill:#002d74;}</style></defs><title>logo-bear</title><g id="Layer_2" data-name="Layer 2"><g id="Layer_1-2" data-name="Layer 1"><path class="cls-1" d="M53.82,12.85c-2.46-1.38-4.63-3.17-3.46-5.44,0,.09,0,0,0,0,.91-2,3.24-3.22,6.19-2.68A7.53,7.53,0,0,1,63,10.32a4.67,4.67,0,0,1-.89,4.79,3.65,3.65,0,0,1-1.54,1.08c-3.33.67-4.73-2.24-6.71-3.34Z"/><path class="cls-1" d="M46.72,26.07a27.93,27.93,0,0,0-4-1.85c-1.44-.48-1.2-3.11.86-3.29a6.65,6.65,0,0,1,2.73.76,6.81,6.81,0,0,1,2.34,1.6c1.18,1.69-.68,3.57-2,2.78Z"/><path class="cls-1" d="M38.77,37.4a48.13,48.13,0,0,0-5.21-.34,41.41,41.41,0,0,0-5.2.34c-3.58.42-5.71-5.49-1.44-8,1.11-.64,3.8-1.08,6.64-1.1s5.54.46,6.65,1.1c4.27,2.48,2.14,8.39-1.44,8Z"/><path class="cls-1" d="M23.93,24.22a27.54,27.54,0,0,0-4,1.85c-1.29.79-3.14-1.09-2-2.78a6.71,6.71,0,0,1,2.34-1.6,6.61,6.61,0,0,1,2.72-.76c2.06.18,2.3,2.81.87,3.29Z"/><path class="cls-1" d="M14.34,12.82c-2,1.1-3.37,4-6.7,3.34a3.56,3.56,0,0,1-1.53-1.08,4.68,4.68,0,0,1-.9-4.79,7.55,7.55,0,0,1,6.38-5.64c3-.53,5.29.68,6.2,2.69,0,0,.05.13,0,0,1.18,2.27-1,4.05-3.46,5.44Z"/><path class="cls-1" d="M67.87,9.32C66.61,3.9,62.89.76,57.28.09,51-.65,47.73,3.15,44.78,7,41.56,5.41,26.9,5.27,23.47,7c-3-3.91-5.86-7.44-13-6.91A11.66,11.66,0,0,0,.37,8.94a10,10,0,0,0,6.15,12C3.79,24.77.8,36.22,1.43,43.17H66.66c.67-8.36-2.16-17.9-5.25-22.28,4.58-1.79,7.68-6.34,6.46-11.58"/><path class="cls-2" d="M53.82,12.85c-2.46-1.38-4.63-3.17-3.46-5.44,0,.09,0,0,0,0,.91-2,3.24-3.22,6.19-2.68A7.53,7.53,0,0,1,63,10.32a4.67,4.67,0,0,1-.89,4.79,3.65,3.65,0,0,1-1.54,1.08c-3.33.67-4.73-2.24-6.71-3.34Zm-7.1,13.22a27.93,27.93,0,0,0-4-1.85c-1.44-.48-1.2-3.11.86-3.29a6.65,6.65,0,0,1,2.73.76,6.81,6.81,0,0,1,2.34,1.6c1.18,1.69-.68,3.57-2,2.78ZM38.77,37.4a48.13,48.13,0,0,0-5.21-.34,41.41,41.41,0,0,0-5.2.34c-3.58.42-5.71-5.49-1.44-8,1.11-.64,3.8-1.08,6.64-1.1s5.54.46,6.65,1.1c4.27,2.48,2.14,8.39-1.44,8ZM23.93,24.22a27.54,27.54,0,0,0-4,1.85c-1.29.79-3.14-1.09-2-2.78a6.71,6.71,0,0,1,2.34-1.6,6.61,6.61,0,0,1,2.72-.76c2.06.18,2.3,2.81.87,3.29Zm-9.59-11.4c-2,1.1-3.37,4-6.7,3.34a3.56,3.56,0,0,1-1.53-1.08,4.68,4.68,0,0,1-.9-4.79,7.55,7.55,0,0,1,6.38-5.64c3-.53,5.29.68,6.2,2.69,0,0,.05.13,0,0,1.18,2.27-1,4.05-3.46,5.44Z"/></g></g></svg>