<?xml version="1.0" encoding="utf-8"?>
<!-- Generator: Adobe Illustrator 23.0.4, SVG Export Plug-In . SVG Version: 6.00 Build 0)  -->
<svg version="1.1" id="Layer_1" xmlns="http://www.w3.org/2000/svg" xmlns:xlink="http://www.w3.org/1999/xlink" x="0px" y="0px"
	 viewBox="0 0 30 17" style="enable-background:new 0 0 30 17;" xml:space="preserve">
<style type="text/css">
	.st0{fill:#004B8D;}
</style>
<title>password-show</title>
<g>
	<g id="Layer_2-2">
		<path class="st0" d="M29.9,8.5l-0.5,0.6c-0.9,1.1-1.9,2-3,2.8c-1.1,0.8-2.2,1.5-3.5,2.1c-1.2,0.6-2.5,1-3.8,1.3
			c-1.3,0.3-2.7,0.5-4.1,0.4c-1.4,0-2.8-0.1-4.1-0.4C9.6,15,8.3,14.6,7.1,14c-1.2-0.6-2.4-1.3-3.5-2.1c-1.1-0.8-2.1-1.8-3-2.8
			L0.1,8.5l0.5-0.6c1.8-2.1,4-3.8,6.5-4.9c3.7-1.7,8-2.2,12-1.3c2.7,0.6,5.2,1.7,7.3,3.4c1.1,0.8,2.1,1.8,3,2.8L29.9,8.5z M5.5,11
			c1.1,0.7,2.2,1.3,3.4,1.8c-0.5-0.6-0.8-1.3-1.1-2c-0.5-1.5-0.5-3.1,0-4.6c0.3-0.7,0.6-1.4,1.1-2C6.5,5.1,4.3,6.6,2.6,8.5
			C3.4,9.5,4.4,10.3,5.5,11z M20.3,6.6C20,5.9,19.6,5.3,19,4.8c-0.5-0.5-1.2-1-1.8-1.2c-0.7-0.3-1.4-0.5-2.2-0.5
			c-0.7,0-1.5,0.1-2.2,0.4c-0.7,0.3-1.3,0.6-1.9,1.1c-0.5,0.5-1,1.1-1.3,1.7C9.4,7,9.2,7.7,9.2,8.5c0,0.8,0.2,1.5,0.5,2.2
			c0.3,0.7,0.7,1.2,1.3,1.7c0.5,0.5,1.2,0.9,1.9,1.1c0.7,0.3,1.4,0.4,2.2,0.4c0.7,0,1.4-0.1,2.1-0.3c0.7-0.2,1.3-0.6,1.9-1
			c0.5-0.4,1-1,1.3-1.6c0.3-0.7,0.5-1.4,0.5-2.2C20.8,8.1,20.6,7.3,20.3,6.6z M13.2,7.8c0.1-0.2,0.2-0.4,0.4-0.6
			C13.8,7,14,6.8,14.3,6.7c0.5-0.2,1-0.2,1.5,0C16,6.8,16.2,7,16.4,7.2c0.2,0.2,0.3,0.4,0.4,0.6c0.1,0.2,0.1,0.5,0.1,0.8
			c0,0.3,0,0.5-0.1,0.7c-0.2,0.4-0.6,0.8-1,1c-0.5,0.2-1,0.2-1.5,0c-0.4-0.2-0.8-0.6-1-1c-0.1-0.2-0.2-0.5-0.1-0.7
			C13.1,8.2,13.2,8,13.2,7.8z M24.6,11c1-0.7,2-1.5,2.9-2.5c-0.9-1-1.9-1.8-3-2.6c-1.1-0.7-2.3-1.3-3.5-1.8c0.5,0.7,0.9,1.4,1.2,2.2
			c0.3,0.8,0.5,1.7,0.5,2.5c0,0.7-0.1,1.4-0.3,2.1c-0.2,0.7-0.5,1.3-0.9,1.8C22.5,12.3,23.6,11.7,24.6,11z"/>
	</g>
</g>
</svg>
