<svg xmlns="http://www.w3.org/2000/svg" viewBox="0 0 50 50"><defs><style>.cls-1{fill:#004b8d;}</style></defs><g id="Layer_2" data-name="Layer 2"><g id="Layer_2-2" data-name="Layer 2"><path class="cls-1" d="M22.14,12.37a2.94,2.94,0,0,1,.89-2.2,3.36,3.36,0,0,1,2.44-.87,3.35,3.35,0,0,1,2.43.87,2.88,2.88,0,0,1,.91,2.2,2.9,2.9,0,0,1-.92,2.22,3.37,3.37,0,0,1-2.42.87,3.37,3.37,0,0,1-2.42-.87A2.9,2.9,0,0,1,22.14,12.37Zm6.32,28h-6V18.14h6Z"/><path class="cls-1" d="M25,0A25,25,0,1,0,50,25,25,25,0,0,0,25,0Zm.07,47.42A22.44,22.44,0,1,1,47.5,25,22.44,22.44,0,0,1,25.07,47.42Z"/></g></g></svg>