<svg xmlns="http://www.w3.org/2000/svg" viewBox="0 0 50 50"><defs><style>.cls-1{fill:#390;}</style></defs><g id="Layer_2" data-name="Layer 2"><g id="Layer_2-2" data-name="Layer 2"><g id="check"><path class="cls-1" d="M40.54,16.32l-2.83-2.85a1,1,0,0,0-1.41,0L21.44,28.27a1,1,0,0,1-1.41,0l-6.52-6.64a1,1,0,0,0-.7-.29,1,1,0,0,0-.71.29L9.22,24.22a1,1,0,0,0-.3.7,1.1,1.1,0,0,0,.3.73l6.56,6.89L17.19,34,20,36.81a1,1,0,0,0,1.41,0l19.1-19.07A1,1,0,0,0,40.54,16.32Z"/></g><path class="cls-1" d="M25,0A25,25,0,1,0,50,25,25,25,0,0,0,25,0Zm.07,47.42A22.44,22.44,0,1,1,47.5,25,22.44,22.44,0,0,1,25.07,47.42Z"/></g></g></svg>