<svg xmlns="http://www.w3.org/2000/svg" viewBox="0 0 50 50"><defs><style>.cls-1{fill:#f90;}</style></defs><g id="Layer_2" data-name="Layer 2"><g id="Layer_2-2" data-name="Layer 2"><path class="cls-1" d="M25,0A25,25,0,1,0,50,25,25,25,0,0,0,25,0Zm.07,47.42A22.44,22.44,0,1,1,47.5,25,22.44,22.44,0,0,1,25.07,47.42Z"/><path class="cls-1" d="M25,34.33a3.36,3.36,0,0,1,2.42.89,3.25,3.25,0,0,1,0,4.51,3.39,3.39,0,0,1-2.42.88,3.35,3.35,0,0,1-2.4-.88,3.21,3.21,0,0,1,0-4.5A3.28,3.28,0,0,1,25,34.33Zm2.47-3.25H22.49l-.7-20.78h6.34Z"/></g></g></svg>